<svg width="32" height="32" viewBox="0 0 32 32" fill="none" xmlns="http://www.w3.org/2000/svg">
    <path d="M16 32C24.8366 32 32 24.8366 32 16C32 7.16344 24.8366 0 16 0C7.16344 0 0 7.16344 0 16C0 24.8366 7.16344 32 16 32Z" fill="#FFEBEA"/>
    <path fill-rule="evenodd" clip-rule="evenodd" d="M9.33398 26.6576V23.7456H23.2473V26.6576H9.33398ZM14.3033 14.3851H18.17L16.3273 8.54312H16.254L14.3033 14.3851ZM18.8207 7.46451L22.922 19.7896H19.8873L18.9647 16.8602H13.4713L12.478 19.79H9.62331L13.9286 7.46494C14.346 6.26942 14.8326 5.33203 16.3993 5.33203C17.966 5.33203 18.4233 6.27326 18.8207 7.46494V7.46451Z" fill="#DE2E21"/>
</svg>
