<svg width="32" height="32" viewBox="0 0 32 32" fill="none" xmlns="http://www.w3.org/2000/svg">
    <path d="M16 32C24.8366 32 32 24.8366 32 16C32 7.16344 24.8366 0 16 0C7.16344 0 0 7.16344 0 16C0 24.8366 7.16344 32 16 32Z" fill="#202020"/>
    <path fill-rule="evenodd" clip-rule="evenodd" d="M8.38531 11.9918C8.10398 12.3386 7.65398 12.6122 7.20385 12.5732C7.14758 12.1042 7.36798 11.6059 7.62584 11.2981C7.90704 10.9415 8.39931 10.6875 8.79784 10.668C8.84464 11.1565 8.66185 11.6352 8.38531 11.9918ZM8.79305 12.666C8.39665 12.6421 8.03478 12.7902 7.74264 12.9097C7.55451 12.9868 7.39531 13.0518 7.27411 13.0518C7.13824 13.0518 6.97238 12.9832 6.78624 12.9061C6.54224 12.8052 6.26332 12.6897 5.97092 12.6953C5.30052 12.705 4.67704 13.1008 4.33478 13.7309C3.63158 14.9913 4.15198 16.8573 4.83172 17.8832C5.16452 18.3913 5.56305 18.9481 6.08811 18.9286C6.31905 18.9196 6.48531 18.8461 6.65718 18.77C6.85518 18.6825 7.06091 18.5916 7.38198 18.5916C7.69198 18.5916 7.88864 18.6801 8.07744 18.7652C8.25691 18.846 8.42931 18.9236 8.68531 18.9189C9.22905 18.909 9.57131 18.4108 9.90411 17.9028C10.2633 17.3574 10.4212 16.8253 10.4452 16.7445L10.448 16.7352C10.4474 16.7346 10.4429 16.7325 10.4352 16.7288C10.315 16.6714 9.39731 16.2337 9.38851 15.0596C9.37958 14.0742 10.1164 13.5749 10.2324 13.4964C10.2394 13.4916 10.2442 13.4884 10.2464 13.4866C9.77758 12.7637 9.04625 12.6854 8.79305 12.666ZM12.5576 18.8652V11.2493H15.3C16.716 11.2493 17.7053 12.2654 17.7053 13.7505C17.7053 15.2356 16.6973 16.2614 15.2626 16.2614H13.692V18.8652H12.5576ZM13.692 12.2458H15C15.984 12.2458 16.5467 12.7929 16.5467 13.7553C16.5467 14.7177 15.984 15.2697 14.9946 15.2697H13.692V12.2458ZM21.4506 17.9516C21.1506 18.5476 20.4893 18.9237 19.7773 18.9237C18.7226 18.9237 17.9866 18.2692 17.9866 17.2824C17.9866 16.3053 18.6986 15.7436 20.016 15.6605L21.432 15.5726V15.1525C21.432 14.5321 21.0426 14.195 20.3493 14.195C19.7773 14.195 19.36 14.5028 19.276 14.9717H18.2533C18.2866 13.9849 19.1773 13.2668 20.3813 13.2668C21.68 13.2668 22.524 13.9752 22.524 15.0742V18.8652H21.4746V17.9516H21.4506ZM20.0813 18.02C19.4773 18.02 19.0933 17.7172 19.0933 17.253C19.0933 16.7742 19.4626 16.4958 20.1706 16.4518L21.432 16.3688V16.7988C21.432 17.512 20.8506 18.02 20.0813 18.02ZM26.008 19.1632C25.5533 20.4968 25.032 20.9365 23.9266 20.9365C23.8413 20.9365 23.56 20.9266 23.4946 20.9072V19.9937C23.5653 20.0034 23.7386 20.0132 23.828 20.0132C24.3293 20.0132 24.6106 19.7933 24.784 19.2218L24.8866 18.8848L22.9653 13.3401H24.1506L25.4866 17.8393H25.5106L26.8466 13.3401H28L26.008 19.1632Z" fill="white"/>
</svg>
