<svg width="64" height="44" viewBox="0 0 64 44" fill="none" xmlns="http://www.w3.org/2000/svg">
    <g clip-path="url(#clip0_917_6559)">
        <path d="M62.7001 0.680055C53.2001 20.5401 31.4101 33.4801 9.90008 37.4801C10.7401 37.1401 11.5601 36.7901 12.3501 36.3901C13.4901 35.8201 14.1601 35.6901 14.4801 34.3901C14.5335 34.1702 14.5013 33.9382 14.3898 33.7413C14.2784 33.5444 14.0961 33.3974 13.8801 33.3301L13.5401 33.2101C12.6501 32.8701 12.0001 34.3801 12.8901 34.7601C10.8401 33.8201 3.83008 37.4801 1.14008 38.5701H1.07008C0.860705 38.585 0.664492 38.6777 0.520084 38.8301C0.359377 38.9068 0.225395 39.03 0.135466 39.1838C0.0455368 39.3375 0.00379664 39.5146 0.0156435 39.6924C0.0274905 39.8701 0.0923795 40.0401 0.201919 40.1805C0.311458 40.321 0.46061 40.4253 0.630084 40.4801L9.37008 43.9201C10.3001 44.2901 10.9901 42.6901 10.0601 42.2901L4.58008 39.9901C28.1401 37.1901 53.5001 23.3501 63.3701 1.07006C63.5701 0.620055 62.9201 0.230055 62.7001 0.680055Z" fill="#CD5237"/>
    </g>
    <defs>
        <clipPath id="clip0_917_6559">
            <rect width="63.41" height="43.52" fill="white" transform="translate(0 0.47998)"/>
        </clipPath>
    </defs>
</svg>
