<svg width="111" height="76" viewBox="0 0 111 76" fill="none" xmlns="http://www.w3.org/2000/svg">
    <g clip-path="url(#clip0_565_6595)">
        <path d="M54.9623 89.034C54.2655 89.1781 53.6318 88.8915 53.0577 88.5331C50.1873 88.0348 47.7548 86.0233 45.214 84.6701C40.1415 81.5088 35.2694 78.0366 30.6256 74.2733C28.7734 74.7956 26.8715 75.4136 24.9309 75.3732C24.8485 75.358 24.7717 75.3205 24.7091 75.2647C24.6465 75.209 24.6003 75.1371 24.5755 75.057C20.9701 72.2304 17.2376 66.3205 16.2733 61.8146C14.9767 60.8701 18.642 59.3838 19.2002 58.5949C23.9207 54.5453 28.0928 49.9044 32.7531 45.7837L32.6453 45.885C32.8703 45.6756 33.0859 45.4615 33.3126 45.2516C35.9599 42.7214 38.6049 40.1842 41.2759 37.6791L41.1698 37.7797C50.3024 29.0374 59.3194 20.1726 68.4167 11.3935C69.0539 10.9093 69.7222 9.57355 70.6389 10.2505C70.7131 10.223 70.7926 10.2126 70.8714 10.2202C70.9502 10.2277 71.0263 10.253 71.094 10.2942C75.3274 10.7811 78.9616 16.8742 81.4114 20.0075L81.3542 19.9393C81.4747 20.084 81.5626 20.2529 81.6119 20.4347C82.9257 20.0682 86.015 17.3655 86.0245 20.2032C88.1531 22.425 89.5171 25.2135 91.067 27.8442C92.8432 30.9516 93.1293 34.2011 89.3274 35.7072C89.413 35.8133 89.4579 35.9464 89.4542 36.0827C89.4505 36.2189 89.3984 36.3494 89.3072 36.4506C92.2388 40.8429 95.6369 45.8012 95.1415 51.3171C95.7431 53.4804 90.9633 53.5774 89.5656 54.3119C86.1641 55.2723 82.7512 56.1921 79.3618 57.1951C70.0145 59.926 60.7627 63.0472 51.6318 66.4476L51.7504 66.4086C49.2682 67.3664 46.7756 68.3276 44.2785 69.2226C47.9208 72.7314 51.7527 76.0346 55.546 79.3796C56.7686 80.4219 58.5689 81.4637 58.615 83.249C58.415 85.4498 57.2691 88.3892 54.9623 89.034ZM33.4687 73.3843L33.7392 73.5835C33.7486 73.561 33.7604 73.5396 33.7743 73.5197L33.5938 73.3412L33.4687 73.3843ZM74.5141 56.3687C79.3293 54.8871 84.195 53.5705 89.0446 52.211C85.0932 49.6432 82.0438 45.9685 79.1436 42.3181L79.2483 42.4422L78.8933 42.0156C78.9263 42.057 78.9615 42.0995 78.9962 42.1403C76.1016 38.5597 73.3698 34.7456 71.4438 30.5484C71.4467 30.5571 71.4496 30.5659 71.4524 30.5746C71.3724 30.3959 71.2929 30.219 71.2146 30.0398C71.2104 30.0303 71.2072 30.0203 71.2049 30.0101C71.2049 30.0101 71.2089 30.0224 71.2106 30.0276C71.2123 30.0328 71.206 30.0136 71.2043 30.0084C69.1309 25.4691 66.6165 20.7113 67.0007 15.5685C58.0629 24.2448 49.382 33.1615 40.2996 41.6804L40.4074 41.5792C38.5849 43.314 36.7803 45.068 34.952 46.7969L35.0598 46.6957L34.8931 46.853L34.9992 46.7524L34.7497 46.9872L34.8575 46.886C34.611 47.1238 34.365 47.3633 34.1115 47.5917C33.6779 48.0012 33.2416 48.4065 32.8026 48.8075C36.3462 54.1549 40.513 59.1697 44.7752 63.9809C44.7989 64.0118 44.8261 64.0415 44.8498 64.0724C44.8516 64.0789 44.8537 64.0853 44.8561 64.0916C45.3439 64.7047 45.8638 65.2801 46.3807 65.8642C46.4514 65.9481 46.5146 66.0379 46.5696 66.1328C47.4204 65.8219 48.2671 65.5047 49.1133 65.1857L49.0366 65.2109C57.4334 61.9708 65.9594 59.1116 74.5129 56.3652L74.5141 56.3687ZM86.4499 37.8432C84.7435 38.9731 82.9597 39.9854 81.3168 41.2144C84.3588 44.8549 87.3522 49.3468 92.0182 50.9136C92.8271 46.48 90.4325 42.2746 88.1944 38.621L88.1978 38.6315C87.9227 38.1419 87.5079 37.7098 87.3863 37.158C87.0788 37.3868 86.769 37.6202 86.4488 37.8397L86.4499 37.8432ZM72.7491 27.9995C74.7085 32.4158 77.5005 36.4305 80.4966 40.2021C82.9011 37.6976 85.8259 35.782 88.4651 33.5445C85.7523 30.5577 82.6626 26.4843 82.535 22.324C79.277 23.8967 75.8523 25.0041 72.485 26.2976C72.4791 26.3967 72.4398 26.491 72.3737 26.565C72.3075 26.6391 72.2183 26.6886 72.1205 26.7056C72.3302 27.1317 72.5435 27.5624 72.748 27.996L72.7491 27.9995ZM87.0722 27.9827C87.9831 29.4119 89.1066 30.8407 90.3877 31.92C89.8795 28.8653 86.4757 23.8838 84.2949 21.627C83.7754 23.7028 85.6624 25.478 86.5828 27.1768L86.4974 27.0405C86.5759 27.1674 86.6561 27.2938 86.7323 27.4196C86.7057 27.3742 86.6775 27.3293 86.6486 27.2828L87.0722 27.9827ZM70.6959 11.8929C66.9069 15.6535 69.6579 21.2888 71.4762 25.3937C73.9887 23.6292 76.9409 22.7778 79.6356 21.373C77.4035 18.5723 74.2973 12.7386 70.9186 11.5354C70.8665 11.6663 70.7907 11.7863 70.6948 11.8894L70.6959 11.8929Z" fill="#CD5237"/>
        <path d="M21.5185 65.6061C20.8597 64.4498 21.9007 62.6898 22.1279 61.4354C22.1501 61.3655 22.1868 61.3012 22.2357 61.2466C22.2846 61.1921 22.3445 61.1485 22.4114 61.1188C22.4784 61.0891 22.5509 61.0739 22.6242 61.0743C22.6974 61.0747 22.7698 61.0906 22.8364 61.1211C23.7071 61.8344 22.1724 63.9386 22.2809 65.0381C22.2723 65.0119 22.2759 64.9818 22.2742 64.9533C22.2746 64.9735 22.2761 64.9937 22.2786 65.0137L22.2729 64.9963C22.3822 65.4283 21.9245 65.8999 21.5185 65.6061Z" fill="#231F20"/>
        <path d="M24.2115 64.343C23.2823 64.0395 24.4812 62.8889 24.4721 62.2383C24.7908 61.6616 24.5657 60.2311 25.4465 60.2701C25.5694 60.32 25.6697 60.4135 25.7282 60.5326C25.7867 60.6518 25.7992 60.7883 25.7634 60.9161C25.3139 62.0116 25.2158 63.6586 24.2115 64.343Z" fill="#231F20"/>
        <path d="M27.3364 62.5065C27.3342 60.9601 27.6005 59.1958 28.3124 57.8342C29.3208 57.309 29.3758 58.7162 29.0059 59.3252L29.0335 59.233C28.7192 60.198 28.4834 61.1868 28.3283 62.1898C28.5116 62.8644 27.5305 63.2316 27.3364 62.5065Z" fill="#231F20"/>
    </g>
    <defs>
        <clipPath id="clip0_565_6595">
            <rect width="89.2979" height="79.3093" fill="white" transform="translate(0.5 27.9072) rotate(-18.2109)"/>
        </clipPath>
    </defs>
</svg>
