<svg width="200" height="56" viewBox="0 0 200 56" fill="none" xmlns="http://www.w3.org/2000/svg">
    <path d="M198.399 0.80894C169.712 3.25102 140.948 0.0381575 112.299 0C97.0244 0 81.75 0.434996 66.4756 0.86236L43.495 1.5263C36.6468 1.71709 29.4385 1.32788 22.598 2.2284C22.5543 2.18196 22.5015 2.14495 22.4429 2.11964C22.3842 2.09434 22.321 2.08128 22.2571 2.08128C22.1932 2.08128 22.13 2.09434 22.0714 2.11964C22.0127 2.14495 21.9599 2.18196 21.9162 2.2284L21.8243 2.28945L20.4455 2.51077C20.2777 2.56348 20.1311 2.66811 20.0271 2.80947C19.9231 2.95082 19.867 3.12153 19.867 3.29681C19.867 3.47209 19.9231 3.6428 20.0271 3.78416C20.1311 3.92551 20.2777 4.03014 20.4455 4.08286L20.7825 4.13628C19.7944 6.63178 19.9169 9.71491 19.9169 12.2104C19.9169 16.4306 20.2463 20.6585 20.3689 24.8787C18.0249 23.9324 14.9225 25.0695 12.6397 25.6877C8.7407 26.7408 4.97954 28.1755 1.14945 29.5645C0.81193 29.6542 0.513606 29.8525 0.300809 30.1285C0.0880131 30.4045 -0.0273437 30.7427 -0.0273438 31.0908C-0.0273438 31.4388 0.0880131 31.7771 0.300809 32.0531C0.513606 32.3291 0.81193 32.5273 1.14945 32.6171C9.19265 35.7918 17.7338 37.3944 25.8153 40.5691C25.9482 40.6201 26.0873 40.6535 26.2289 40.6683C25.8766 45.3922 26.0451 50.1848 25.9991 54.9087C26.0077 55.1002 26.0693 55.2857 26.1772 55.4444C26.2851 55.6032 26.4351 55.729 26.6104 55.8081C26.7857 55.8871 26.9796 55.9162 27.1705 55.8922C27.3614 55.8681 27.5419 55.7919 27.692 55.6718C41.5723 56.2976 55.5751 55.8092 69.4707 55.6718C83.6114 55.5421 97.7522 55.2826 111.901 55.0155C140.182 54.4813 168.471 53.8861 196.76 53.8784C196.944 53.8779 197.126 53.8416 197.296 53.7716C197.458 53.8371 197.633 53.865 197.807 53.8532C197.982 53.8413 198.151 53.79 198.302 53.7032C198.454 53.6164 198.583 53.4963 198.681 53.3521C198.779 53.2079 198.842 53.0434 198.867 52.8711C199.464 49.0553 198.867 44.858 198.867 40.9736C198.867 35.8681 198.997 30.7702 199.081 25.6724C199.15 21.8566 199.525 17.8348 198.951 14.0343C198.706 12.4394 198.384 10.852 198.101 9.25702C197.963 8.49387 197.779 7.69256 197.679 6.90652C197.649 6.64704 197.61 6.39266 197.564 6.14336C197.554 6.0636 197.539 5.98457 197.519 5.90679C197.562 5.91518 197.606 5.91116 197.647 5.89522C197.688 5.87927 197.723 5.85206 197.749 5.81678C197.774 5.7815 197.789 5.73962 197.792 5.69608C197.795 5.65254 197.785 5.60914 197.764 5.571C197.672 5.37258 197.587 5.18179 197.503 4.98338C197.439 4.71831 197.285 4.4836 197.067 4.31943L198.399 4.21259C200.537 4.02944 200.56 0.618152 198.399 0.80894ZM195.856 24.8863C195.749 29.9995 195.626 35.1049 195.596 40.218C195.596 43.5988 195.121 47.6969 195.818 51.1616C167.858 51.1616 139.899 51.7493 111.939 52.3979C97.7879 52.7337 83.6446 53.0593 69.509 53.3748C55.7207 53.68 41.8787 53.4892 28.098 54.1379C28.098 49.2232 28.2282 44.217 27.761 39.3481C27.7893 39.0911 27.7632 38.8311 27.6844 38.5849V38.2873C27.6764 38.1341 27.6087 37.9901 27.4956 37.886C27.3825 37.7819 27.2331 37.726 27.0792 37.7302C26.9678 37.656 26.8499 37.5922 26.7268 37.5394C19.9629 34.8684 12.9308 33.2886 6.12857 31.045C8.22746 30.2818 10.3417 29.5187 12.4789 28.8776C14.9608 28.1145 18.5381 27.9161 20.6063 26.1913C20.7484 26.3676 20.9412 26.4963 21.1588 26.5602C21.3765 26.624 21.6085 26.6199 21.8238 26.5484C22.039 26.477 22.2271 26.3415 22.3628 26.1603C22.4985 25.9792 22.5752 25.7609 22.5827 25.535C22.5827 21.6277 22.1997 17.728 22.0541 13.8283C22.0411 10.6783 22.2253 7.53054 22.6056 4.40338C29.1092 5.21995 35.9804 4.70864 42.4762 4.63233C50.1364 4.54838 57.7966 4.37285 65.4568 4.1897C81.0759 3.80812 96.6951 3.42655 112.322 3.42655C139.937 3.42655 167.605 6.4181 195.205 4.4568C195.073 4.60555 194.979 4.78342 194.929 4.97574C194.286 7.59335 195.098 10.5391 195.565 13.1338C196.224 17.0106 195.895 20.9714 195.818 24.8863H195.856Z" fill="#CD5237"/>
</svg>
