<svg width="131" height="40" viewBox="0 0 131 40" fill="none" xmlns="http://www.w3.org/2000/svg">
    <g style="mix-blend-mode:luminosity" clip-path="url(#clip0_193_36610)">
        <path d="M32.2453 10.4808C31.8948 10.8301 31.8948 11.3541 32.2453 11.6161C32.5958 11.9655 33.1216 11.9655 33.3844 11.6161C33.7349 11.2668 33.7349 10.7428 33.3844 10.4808C33.0339 10.1314 32.5082 10.1314 32.2453 10.4808Z" fill="#FEFEFE"/>
        <path d="M40.3077 9.95703H36.8027L35.9264 11.0051C35.7512 11.1797 35.8388 11.2671 36.014 11.3544L37.1532 11.8784L40.3953 10.3937C40.6582 10.3064 40.5706 9.95703 40.3077 9.95703ZM27.2515 27.0749H22.9578C21.8187 27.7736 21.4682 27.9483 19.9786 28.5597C19.891 28.5597 19.8033 28.7343 19.891 28.8217L23.7465 39.564H25.9371L22.4321 29.695C24.7104 29.695 30.2308 29.0837 33.21 24.2802C32.2461 25.6776 30.0555 27.0749 27.2515 27.0749ZM33.3853 11.6164C33.0348 11.9658 32.509 11.9658 32.2461 11.6164C31.8956 11.2671 31.8956 10.7431 32.2461 10.481C32.5966 10.1317 33.1224 10.1317 33.3853 10.481C32.6843 9.78236 31.5451 9.78236 30.9318 10.481C30.3184 11.1797 30.2308 12.2278 30.9318 12.9265C31.6328 13.6252 32.7719 13.6252 33.3853 12.9265C33.9986 12.2278 34.0863 11.1797 33.3853 10.481C33.6481 10.8304 33.6481 11.2671 33.3853 11.6164ZM24.8856 31.1797L27.8649 39.564H30.0555L26.901 30.7431C26.3752 30.9177 25.6742 31.0051 24.8856 31.1797ZM27.8649 20.6994C28.1277 20.35 28.303 20.0007 28.5659 19.564C28.4782 19.4767 28.3906 19.564 28.303 19.6514C23.8341 24.3675 19.5405 24.9789 16.2107 24.9789H11.1284C10.9532 24.9789 10.8655 24.8042 10.9532 24.6295C14.8963 19.2147 19.19 14.9352 22.4321 12.2278L13.9324 19.302C13.2314 19.826 12.4428 20.1754 11.3913 20.1754H0.70099C0.438113 20.1754 0.525739 20.4374 0.525739 20.6121C1.22674 22.8828 3.32975 24.9789 6.83477 24.9789L4.29363 27.5116C4.20601 27.599 4.20601 27.861 4.46888 27.861H14.0201C20.8548 27.861 25.1485 24.8915 27.8649 20.6994Z" fill="#00985F"/>
        <path d="M123.201 39.5633H131V15.5459H123.201V24.3668H115.841V15.5459H108.042V39.5633H115.841V30.4804H123.201V39.5633ZM30.9318 12.9258C30.2308 12.2271 30.2308 11.179 30.9318 10.4803C31.6328 9.78166 32.7719 9.78166 33.3853 10.4803C33.9987 11.179 34.0863 12.2271 33.3853 12.9258C32.6843 13.6245 31.5452 13.6245 30.9318 12.9258ZM33.1224 24.2795C36.1017 19.476 37.1532 11.8777 37.1532 11.8777L36.014 11.3537C35.8388 11.2664 35.8388 11.179 35.9264 11.0044L36.8027 9.95633C36.2769 8.9083 34.3492 7.16157 31.5452 7.16157C29.8803 7.16157 28.3906 7.59825 27.0763 8.47162C27.0763 8.47162 25.1485 9.78166 22.4321 12.1397C19.19 14.9345 14.8963 19.1266 10.9532 24.5415C10.8656 24.7162 10.9532 24.8908 11.1284 24.8908H16.2107C19.5405 24.8908 23.8341 24.2795 28.303 19.5633C28.3906 19.476 28.4783 19.476 28.5659 19.476C28.6535 19.5633 28.6535 19.6507 28.6535 19.738C27.9525 21.4847 26.2 24.8908 22.9579 26.9869H27.2515C30.1431 26.9869 32.2462 25.6769 33.1224 24.2795ZM28.7411 30.0437L32.0709 39.476H41.5345C39.6067 33.6245 37.5037 28.2096 35.4883 23.2314C33.911 26.6376 32.4214 28.2969 28.7411 30.0437ZM0 39.5633H9.55117L12.7933 29.5196H3.50502C2.36589 32.4891 1.22676 35.8079 0 39.5633ZM12.8809 17.9913L17.7003 14.0611C18.7518 11.2664 19.8033 8.47162 20.8548 6.11354C21.3806 7.33624 21.9064 8.64629 22.4321 9.95633C25.0609 7.77293 26.7258 6.46288 28.9164 5.85153C27.602 2.96943 26.6381 0.873362 26.2 0H15.5097C14.6334 1.9214 11.2161 8.99563 7.18528 18.5153H11.0408C11.8294 18.5153 12.4428 18.4279 12.8809 17.9913ZM71.9405 36.8559L72.4662 39.476H78.7753V15.5459H70.9766V32.2271C70.2756 33.0131 68.9612 33.8865 67.7345 33.8865C65.5438 33.8865 64.4047 32.6638 64.4047 30.393V15.5459H56.606V32.2271C55.905 33.0131 54.4154 33.8865 53.101 33.8865C51.0856 33.8865 49.9465 32.6638 49.9465 30.393V15.5459H42.1478V31.441C42.1478 37.2052 44.689 40.0873 49.9465 40.0873C53.7144 40.0873 55.9926 38.69 57.7452 36.8559C58.9719 39.0393 61.1625 40.0873 64.4047 40.0873C68.1726 40 70.2756 38.69 71.9405 36.8559ZM96.7385 32.1397C96.0375 32.9258 94.8983 33.7991 92.9706 33.7991C90.8676 33.7991 89.7284 31.8777 89.7284 28.1223C89.7284 23.4935 90.9552 21.2227 93.4963 21.2227C94.986 21.2227 95.687 21.31 96.7385 21.5721V32.1397ZM90.2542 40H90.5171C94.0221 40 96.388 38.7773 97.7023 36.8559L98.1405 39.476H104.537V16.5065C101.996 15.7205 99.0167 15.0218 93.584 15.0218C85.7853 15.0218 81.5793 19.738 81.5793 28.4716C81.5793 36.5065 84.5585 40 90.2542 40Z" fill="#DC000F"/>
    </g>
    <defs>
        <clipPath id="clip0_193_36610">
            <rect width="131" height="40" fill="white"/>
        </clipPath>
    </defs>
</svg>
