<svg width="48" height="48" viewBox="0 0 48 48" fill="none" xmlns="http://www.w3.org/2000/svg">
    <g style="mix-blend-mode:luminosity">
        <path d="M0 23.04C0 12.1788 0 6.74826 3.37413 3.37413C6.74826 0 12.1788 0 23.04 0H24.96C35.8212 0 41.2517 0 44.6259 3.37413C48 6.74826 48 12.1788 48 23.04V24.96C48 35.8212 48 41.2517 44.6259 44.6259C41.2517 48 35.8212 48 24.96 48H23.04C12.1788 48 6.74826 48 3.37413 44.6259C0 41.2517 0 35.8212 0 24.96V23.04Z" fill="#0077FF"/>
        <path d="M25.5395 34.5816C14.5995 34.5816 8.35961 27.0816 8.09961 14.6016H13.5796C13.7596 23.7616 17.7995 27.6416 20.9995 28.4416V14.6016H26.1597V22.5016C29.3197 22.1616 32.6393 18.5616 33.7593 14.6016H38.9194C38.0594 19.4816 34.4594 23.0816 31.8994 24.5616C34.4594 25.7616 38.5596 28.9016 40.1196 34.5816H34.4394C33.2194 30.7816 30.1797 27.8416 26.1597 27.4416V34.5816H25.5395Z" fill="white"/>
    </g>
</svg>
