<svg width="138" height="40" viewBox="0 0 138 40" fill="none" xmlns="http://www.w3.org/2000/svg">
    <path d="M131.571 34.8309C134.278 34.8309 136.196 34.3403 137.625 33.2837V28.4912C136.159 29.5101 134.391 30.1516 131.91 30.1516C127.736 30.1516 126.006 26.9063 126.006 21.7743C126.006 16.378 128.112 13.6233 131.947 13.6233C134.203 13.6233 136.422 14.4158 137.587 15.1705V10.1893C136.347 9.5101 134.203 9.01953 131.27 9.01953C123.787 9.01953 119.914 14.4158 119.914 21.9629C119.952 30.2271 123.75 34.8309 131.571 34.8309ZM94.9842 32.6422V27.8497C93.1793 29.095 90.0959 30.1893 87.2757 30.1893C82.9891 30.1893 81.3722 28.1516 81.109 24.0007H95.2474V20.9063C95.2474 12.2648 91.4496 9.01953 85.6212 9.01953C78.4768 9.01953 75.0926 14.4912 75.0926 22.0007C75.0926 30.6422 79.3417 34.8309 86.7869 34.8309C90.5095 34.8309 93.2545 33.812 94.9842 32.6422ZM41.3259 9.47236V19.2837H33.5046V9.47236H27.6387V34.3403H33.5046V23.9629H41.3259V34.3403H47.1918V9.47236H41.3259ZM73.6261 29.661H71.0316V9.47236H53.9602V11.5856C53.9602 17.661 53.5842 25.5101 51.5161 29.661H49.6359V40.0007H55.0507V34.3403H68.1738V40.0007H73.5885V29.661H73.6261ZM113.672 34.3403H120.328L110.927 20.9441L119.2 9.47236H113.296L105.024 20.9441V9.47236H99.158V34.3403H105.024V22.1139L113.672 34.3403ZM85.4708 13.6233C88.3662 13.6233 89.2686 16.0384 89.2686 19.1705V19.661H81.109C81.2594 15.6988 82.6883 13.6233 85.4708 13.6233ZM65.1656 29.661H56.8932C58.5101 25.9252 58.9613 19.1327 58.9613 14.8309V14.0761H65.1656V29.661Z" fill="#202020"/>
    <path d="M22.7493 34.3396H16.7706V4.64151H14.1008C9.21254 4.64151 6.65559 7.09434 6.65559 10.7547C6.65559 14.9057 8.42289 16.8302 12.0703 19.283L15.0785 21.3208L6.42997 34.3396H0L7.78365 22.717C3.30899 19.5094 0.789646 16.3774 0.789646 11.0943C0.789646 4.49057 5.37711 0 14.0632 0H22.7117V34.3396H22.7493Z" fill="#FC3F1D"/>
</svg>
