<svg width="32" height="32" viewBox="0 0 32 32" fill="none" xmlns="http://www.w3.org/2000/svg">
    <path d="M16 32C24.8366 32 32 24.8366 32 16C32 7.16344 24.8366 0 16 0C7.16344 0 0 7.16344 0 16C0 24.8366 7.16344 32 16 32Z" fill="#FAFAFA"/>
    <path fill-rule="evenodd" clip-rule="evenodd" d="M15.0688 19.7297V16.8295H16.5648C17.1781 16.8295 17.6968 16.6241 18.1181 16.2187L18.2194 16.1159C18.9901 15.2767 18.9395 13.9694 18.1181 13.193C17.7075 12.7819 17.1448 12.5593 16.5648 12.5707H14.1621V19.7297H15.0688ZM15.0688 15.9503V13.4498H16.5874C16.9141 13.4498 17.2235 13.5754 17.4541 13.8038C17.9448 14.2834 17.9555 15.0826 17.4835 15.5793C17.2528 15.8247 16.9261 15.9618 16.5874 15.9503H15.0688ZM22.4461 15.2139C22.0568 14.8542 21.5288 14.6715 20.8581 14.6715C19.9981 14.6715 19.3501 14.9913 18.9234 15.6249L19.7221 16.133C20.0141 15.6991 20.4141 15.4822 20.9208 15.4822C21.2408 15.4822 21.5515 15.6021 21.7928 15.819C22.0288 16.0246 22.1648 16.3214 22.1648 16.6354V16.8466C21.8154 16.6526 21.3768 16.5498 20.8368 16.5498C20.2061 16.5498 19.6995 16.6982 19.3221 17.0007C18.9461 17.3034 18.7541 17.703 18.7541 18.2111C18.7434 18.6735 18.9394 19.1131 19.2888 19.4099C19.6434 19.7297 20.0928 19.8895 20.6221 19.8895C21.2474 19.8895 21.7421 19.6098 22.1194 19.0503H22.1581V19.7297H23.0248V16.7097C23.0248 16.0759 22.8341 15.5735 22.4461 15.2139ZM19.9861 18.8277C19.8008 18.6906 19.6888 18.4679 19.6888 18.2282C19.6888 17.9599 19.8128 17.7373 20.0541 17.5602C20.3021 17.3833 20.6115 17.2919 20.9768 17.2919C21.4835 17.2862 21.8781 17.4005 22.1594 17.6287C22.1594 18.017 22.0074 18.3538 21.7088 18.6393C21.4381 18.9133 21.0728 19.0674 20.6901 19.0674C20.4368 19.0731 20.1888 18.9875 19.9861 18.8277ZM24.9728 21.8819L27.9995 14.8314H27.0141L25.6141 18.3481H25.5968L24.1621 14.8314H23.1768L25.1635 19.4157L24.0381 21.8819H24.9728Z" fill="#3C4043"/>
    <path d="M11.9407 16.2007C11.9407 15.9209 11.9181 15.6412 11.8727 15.3672H8.05273V16.9485H10.2407C10.1514 17.4567 9.85806 17.9133 9.4314 18.1988V19.2264H10.7367C11.5021 18.5128 11.9407 17.4567 11.9407 16.2007Z" fill="#4285F4"/>
    <path d="M8.05422 20.221C9.14622 20.221 10.0689 19.8556 10.7382 19.2276L9.43288 18.2C9.06622 18.4512 8.59955 18.5939 8.05422 18.5939C6.99555 18.5939 6.10088 17.869 5.78088 16.8984H4.43555V17.9603C5.12221 19.3475 6.52355 20.221 8.05422 20.221Z" fill="#34A853"/>
    <path d="M5.78034 16.8974C5.611 16.3892 5.611 15.8355 5.78034 15.3218V14.2656H4.435C3.855 15.4244 3.855 16.7946 4.435 17.9535L5.78034 16.8974Z" fill="#FBBC04"/>
    <path d="M8.05422 13.6273C8.63289 13.6158 9.19022 13.8385 9.60755 14.2438L10.7662 13.0678C10.0289 12.3713 9.06089 11.9888 8.05422 12.0002C6.52355 12.0002 5.12221 12.8794 4.43555 14.2666L5.78088 15.3285C6.10088 14.3522 6.99555 13.6273 8.05422 13.6273Z" fill="#EA4335"/>
</svg>
