<svg width="479" height="483" viewBox="0 0 479 483" fill="none" xmlns="http://www.w3.org/2000/svg">
    <path d="M412.35 402.645C402.783 412.728 393.731 419.23 386.58 424.367C302.515 484.749 203.042 467.148 181.901 462.851C150.682 456.502 90.3351 444.234 46.7159 392.873C-19.2944 315.17 -9.01619 192.75 42.1844 111.938C51.5487 97.1577 101.017 15.1162 201.56 1.95922C262.407 -6.01153 333.337 10.0547 384.702 53.1349C492.521 143.563 484.844 326.244 412.35 402.645Z" fill="url(#paint0_linear_245_3016)"/>
    <path d="M278.706 222.295C290.54 193.65 310.585 171.698 333.138 159.69C353.3 148.947 368.704 130.905 375.69 109.164C376.423 106.879 377.26 104.598 378.199 102.321C392.431 67.8703 425.055 48.6729 451.071 59.4421C477.087 70.2113 486.629 106.868 472.396 141.319C469.604 148.113 465.968 154.526 461.573 160.409C448.058 178.409 441.461 200.796 443.962 223.186C446.198 243.194 443.249 265.269 434.376 286.745C421.143 318.774 397.643 342.435 371.852 353.189C362.083 357.25 353.141 363.07 345.469 370.36C332.761 382.474 315.898 387.265 301.296 381.22C285.545 374.697 276.828 357.387 277.737 338.11C278.256 327.193 276.613 316.329 273.323 305.908C265.548 281.308 266.74 251.257 278.706 222.295Z" fill="#91B3FA"/>
    <path d="M426.817 92.3198C414.009 113.681 401.904 135.436 390.023 157.32C387.049 162.788 384.166 168.305 381.263 173.812L376.911 182.072L372.627 190.37C369.794 195.915 366.884 201.417 364.113 206.993L355.805 223.718C350.402 234.937 344.9 246.112 339.716 257.432C337.111 263.088 334.397 268.695 331.908 274.403L324.363 291.493C314.533 314.38 305.272 337.526 297.199 361.095L298.212 361.454L304.921 344.05L306.589 339.697L308.365 335.384L311.933 326.769L315.485 318.148C316.663 315.274 317.949 312.442 319.175 309.587C321.667 303.891 324.113 298.177 326.64 292.498C336.901 269.847 347.518 247.361 358.489 225.04C364.085 213.936 369.586 202.784 375.26 191.719L379.494 183.401L383.795 175.126C386.66 169.607 389.526 164.088 392.45 158.598C398.199 147.569 404.029 136.582 409.941 125.639C415.799 114.665 421.739 103.736 427.759 92.8518L426.817 92.3198Z" fill="#BDD0FB"/>
    <g opacity="0.5">
        <path d="M445.816 164.557C445.949 164.556 446.079 164.526 446.199 164.47C446.318 164.413 446.424 164.33 446.508 164.228C467.906 138.219 469.414 115.915 466.914 101.793C464.197 86.4458 456.501 77.4076 456.183 77.0299C456.026 76.8484 455.803 76.7367 455.564 76.7195C455.325 76.7023 455.088 76.7809 454.907 76.9381C454.726 77.0952 454.614 77.3181 454.597 77.5576C454.58 77.7971 454.658 78.0336 454.815 78.2151C454.893 78.3035 462.549 87.3174 465.157 102.204C467.565 115.936 466.044 137.644 445.127 163.078C445.018 163.21 444.949 163.37 444.928 163.54C444.907 163.709 444.934 163.882 445.006 164.037C445.079 164.191 445.194 164.323 445.338 164.415C445.482 164.507 445.649 164.556 445.82 164.557H445.816Z" fill="#BDD0FB"/>
    </g>
    <path d="M316.723 289.795C330.917 274.062 348.849 264.518 366.111 261.944C381.544 259.645 395.596 251.548 405.085 239.153C406.082 237.849 407.144 236.572 408.271 235.32C425.34 216.4 450.729 211.505 464.982 224.388C479.234 237.272 476.947 263.053 459.879 281.975C456.522 285.71 452.71 289.007 448.531 291.788C435.703 300.279 426.318 313.188 422.782 328.176C419.621 341.569 412.651 355.105 402.011 366.9C386.142 384.493 365.592 394.347 346.536 395.371C339.318 395.753 332.23 397.456 325.625 400.396C314.67 405.286 302.725 404.513 294.725 397.277C286.093 389.48 284.467 376.339 289.482 364.135C292.321 357.23 293.764 349.857 294.043 342.395C294.701 324.775 302.374 305.702 316.723 289.795Z" fill="#BDD0FB"/>
    <path d="M441.832 240.006C428.689 250.827 415.905 262.064 403.232 273.433C400.063 276.273 396.941 279.165 393.809 282.045L389.112 286.377L384.45 290.738C381.355 293.66 378.219 296.536 375.155 299.491L365.966 308.355C359.908 314.344 353.811 320.279 347.871 326.376C344.897 329.421 341.864 332.408 338.951 335.515L330.172 344.79C318.591 357.275 307.324 370.058 296.71 383.384L297.278 383.845L305.586 374.176L307.663 371.751L309.797 369.382L314.071 364.651L318.336 359.914C319.754 358.332 321.232 356.804 322.677 355.246C325.587 352.149 328.474 349.03 331.405 345.953C343.207 333.72 355.2 321.673 367.383 309.813C373.533 303.944 379.635 298.03 385.826 292.197L390.458 287.815L395.132 283.473C398.247 280.576 401.353 277.678 404.493 274.809C410.724 269.023 416.997 263.284 423.313 257.592C429.601 251.87 435.931 246.194 442.304 240.562L441.832 240.006Z" fill="url(#paint1_linear_245_3016)"/>
    <g opacity="0.5">
        <path d="M433.057 288.617C433.147 288.654 433.244 288.671 433.341 288.667C433.438 288.662 433.532 288.636 433.618 288.591C455.3 277.099 462.564 262.52 464.842 252.312C467.314 241.222 464.669 232.981 464.557 232.636C464.496 232.478 464.377 232.349 464.224 232.276C464.071 232.203 463.895 232.192 463.734 232.245C463.573 232.298 463.439 232.411 463.359 232.561C463.279 232.71 463.26 232.885 463.305 233.049C463.331 233.13 465.957 241.345 463.541 252.094C461.311 262.009 454.204 276.179 433.002 287.425C432.848 287.507 432.733 287.647 432.681 287.814C432.63 287.981 432.647 288.161 432.728 288.315C432.799 288.452 432.916 288.558 433.057 288.617Z" fill="url(#paint2_linear_245_3016)"/>
    </g>
    <path d="M59.4154 2.70111H382.59C391.402 2.70111 398.501 12.8153 398.341 25.144L393.794 375.982C393.58 392.493 383.876 405.662 364.012 405.456L58.0376 400.085C55.5748 400.041 53.178 399.28 51.1399 397.895C49.1017 396.511 47.5103 394.562 46.5599 392.287C44.9432 388.423 43.51 383.395 43.5117 377.905L43.6623 24.7316C43.6675 12.5623 50.7193 2.70111 59.4154 2.70111Z" fill="url(#paint3_linear_245_3016)"/>
    <path d="M66.5434 12.2018H376.866C385.328 12.2018 392.145 21.8118 391.991 33.5253L387.625 366.871C387.419 382.561 378.105 395.073 366.768 394.876L66.2093 389.653C57.9251 389.509 51.2663 380.168 51.2715 368.699L51.4169 33.1337C51.4221 21.5709 58.1917 12.2018 66.5434 12.2018Z" fill="#91B3FA"/>
    <path d="M55.7563 11.1584H387.288C387.844 11.1584 388.394 11.268 388.907 11.4809C389.421 11.6939 389.887 12.0059 390.28 12.3993C390.673 12.7927 390.985 13.2598 391.198 13.7738C391.41 14.2878 391.52 14.8387 391.52 15.3951V62.1383H51.2715V15.6463C51.2719 14.4559 51.7447 13.3144 52.5857 12.4728C53.4267 11.6312 54.5671 11.1584 55.7563 11.1584Z" fill="url(#paint4_linear_245_3016)"/>
    <path d="M353.615 40.4065L177.096 38.7309C172.942 38.691 169.586 35.9394 169.586 32.5587V26.6673C169.586 24.0595 172.182 21.9438 175.4 21.9438H354.883C358.047 21.9438 360.544 24.1288 360.312 26.6933L359.464 36.0503C359.241 38.5247 356.679 40.4342 353.615 40.4065Z" fill="#91B3FA"/>
    <path opacity="0.6" d="M375.886 92.6061H66.8908C66.4043 92.607 65.9225 92.512 65.4727 92.3264C65.023 92.1409 64.6141 91.8686 64.2695 91.5249C63.9249 91.1812 63.6513 90.7729 63.4643 90.3234C63.2773 89.8738 63.1806 89.3918 63.1797 88.9049V79.0073C63.1806 78.5175 63.2784 78.0328 63.4674 77.5811C63.6565 77.1294 63.933 76.7196 64.2811 76.3755C64.6292 76.0314 65.042 75.7597 65.4955 75.5762C65.9491 75.3926 66.4345 75.3008 66.9237 75.3061L375.919 78.03C376.895 78.0368 377.83 78.4295 378.519 79.1226C379.208 79.8158 379.596 80.7532 379.599 81.7312V88.9083C379.595 89.8913 379.202 90.8329 378.506 91.5262C377.81 92.2195 376.868 92.6079 375.886 92.6061Z" fill="white"/>
    <path d="M140.735 38.9454C138.934 38.944 137.174 38.4082 135.678 37.4057C134.181 36.4031 133.015 34.9789 132.327 33.313C131.639 31.6472 131.459 29.8144 131.812 28.0465C132.164 26.2786 133.032 24.655 134.305 23.3807C135.579 22.1065 137.202 21.239 138.968 20.8878C140.734 20.5366 142.565 20.7175 144.229 21.4077C145.892 22.0979 147.314 23.2663 148.314 24.7653C149.315 26.2643 149.848 28.0265 149.848 29.8292C149.846 32.2473 148.884 34.5655 147.176 36.2747C145.467 37.9839 143.151 38.9444 140.735 38.9454ZM140.735 21.8689C139.162 21.8689 137.624 22.3359 136.316 23.2109C135.008 24.0858 133.989 25.3294 133.387 26.7844C132.785 28.2394 132.628 29.8404 132.935 31.3849C133.242 32.9295 133.999 34.3482 135.112 35.4616C136.224 36.5751 137.642 37.3333 139.185 37.6403C140.728 37.9473 142.327 37.7894 143.78 37.1865C145.233 36.5836 146.475 35.5628 147.349 34.2532C148.223 32.9436 148.689 31.4041 148.689 29.8292C148.686 27.7186 147.847 25.6952 146.356 24.2029C144.865 22.7105 142.844 21.8712 140.735 21.8689Z" fill="#91B3FA"/>
    <path d="M111.214 39.6382C109.413 39.6382 107.652 39.1036 106.155 38.1019C104.657 37.1002 103.49 35.6765 102.801 34.0107C102.111 32.345 101.931 30.512 102.282 28.7437C102.634 26.9753 103.501 25.351 104.775 24.0761C106.048 22.8011 107.671 21.9329 109.437 21.5812C111.204 21.2294 113.035 21.41 114.699 22.0999C116.363 22.7899 117.785 23.9583 118.785 25.4575C119.786 26.9566 120.32 28.7191 120.32 30.5221C120.317 32.939 119.357 35.2561 117.65 36.9651C115.943 38.6742 113.628 39.6355 111.214 39.6382ZM111.214 22.56C109.641 22.5597 108.103 23.0264 106.795 23.901C105.486 24.7757 104.467 26.0191 103.864 27.474C103.262 28.9288 103.104 30.5298 103.411 32.0744C103.718 33.619 104.475 35.0379 105.587 36.1516C106.7 37.2652 108.117 38.0237 109.66 38.3311C111.203 38.6385 112.802 38.4809 114.255 37.8783C115.709 37.2757 116.951 36.2552 117.825 34.9458C118.699 33.6364 119.166 32.0969 119.166 30.5221C119.163 28.4114 118.325 26.3879 116.834 24.8952C115.343 23.4026 113.322 22.5628 111.214 22.56Z" fill="#91B3FA"/>
    <path d="M82.8466 39.6382C81.0455 39.6382 79.2849 39.1036 77.7874 38.1019C76.2898 37.1002 75.1227 35.6765 74.4334 34.0107C73.7442 32.345 73.5638 30.512 73.9152 28.7437C74.2666 26.9753 75.1339 25.351 76.4074 24.0761C77.681 22.8011 79.3036 21.9329 81.07 21.5812C82.8365 21.2294 84.6675 21.41 86.3315 22.0999C87.9954 22.7899 89.4176 23.9583 90.4183 25.4575C91.4189 26.9566 91.953 28.7191 91.953 30.5221C91.9502 32.939 90.9899 35.2561 89.2827 36.9651C87.5756 38.6742 85.2609 39.6355 82.8466 39.6382ZM82.8466 22.56C81.2735 22.5597 79.7355 23.0264 78.4274 23.901C77.1192 24.7757 76.0995 26.0191 75.4972 27.474C74.895 28.9288 74.7372 30.5298 75.0439 32.0744C75.3506 33.619 76.108 35.0379 77.2202 36.1516C78.3325 37.2652 79.7497 38.0237 81.2926 38.3311C82.8355 38.6385 84.4347 38.4809 85.8882 37.8783C87.3416 37.2757 88.5839 36.2552 89.4579 34.9458C90.3319 33.6364 90.7984 32.0969 90.7984 30.5221C90.7961 28.4114 89.9577 26.3879 88.467 24.8952C86.9763 23.4026 84.955 22.5628 82.8466 22.56Z" fill="#91B3FA"/>
    <path opacity="0.6" d="M253.737 122.46L195.947 121.98C195.517 121.976 195.091 121.887 194.695 121.719C194.298 121.551 193.939 121.306 193.637 120.999C193.335 120.691 193.097 120.328 192.935 119.928C192.774 119.528 192.693 119.101 192.696 118.67L192.71 117.057C192.717 116.205 193.055 115.39 193.651 114.782C194.248 114.175 195.057 113.824 195.907 113.803L253.72 112.371C254.159 112.362 254.596 112.441 255.004 112.603C255.412 112.765 255.784 113.007 256.097 113.316C256.41 113.624 256.658 113.992 256.827 114.398C256.996 114.804 257.082 115.24 257.08 115.679L257.05 119.205C257.047 119.637 256.958 120.064 256.789 120.461C256.621 120.858 256.376 121.218 256.068 121.52C255.76 121.823 255.396 122.061 254.996 122.222C254.596 122.384 254.168 122.464 253.737 122.46Z" fill="white"/>
    <path opacity="0.6" d="M266.195 227.584L181.112 226.877C180.428 226.871 179.752 226.73 179.123 226.463C178.493 226.196 177.922 225.807 177.443 225.319C176.963 224.831 176.585 224.254 176.328 223.619C176.072 222.984 175.943 222.306 175.948 221.621L176.656 136.313C176.668 134.955 177.21 133.654 178.165 132.689C179.12 131.724 180.414 131.17 181.771 131.146L265.792 132.742C267.502 132.774 269.129 133.481 270.322 134.708C271.514 135.935 272.175 137.584 272.16 139.295L271.443 222.416C271.438 223.101 271.298 223.777 271.031 224.407C270.764 225.037 270.376 225.609 269.889 226.089C269.401 226.568 268.824 226.947 268.19 227.204C267.557 227.461 266.879 227.589 266.195 227.584Z" fill="white"/>
    <path opacity="0.6" d="M146.229 122.46L88.4393 121.98C88.0087 121.976 87.5831 121.887 87.1868 121.719C86.7904 121.551 86.431 121.306 86.1292 120.999C85.8273 120.691 85.5889 120.328 85.4275 119.928C85.2661 119.528 85.1849 119.101 85.1886 118.67L85.2007 117.057C85.2102 116.206 85.5487 115.391 86.1451 114.785C86.7415 114.178 87.5495 113.826 88.3994 113.803L146.212 112.371C146.651 112.362 147.088 112.441 147.496 112.603C147.904 112.765 148.276 113.007 148.589 113.316C148.902 113.624 149.151 113.992 149.319 114.398C149.488 114.804 149.574 115.24 149.572 115.679L149.535 119.207C149.528 120.077 149.175 120.909 148.555 121.519C147.935 122.128 147.099 122.467 146.229 122.46Z" fill="white"/>
    <path opacity="0.6" d="M158.685 227.584L73.6021 226.877C72.9177 226.871 72.2412 226.73 71.6112 226.463C70.9812 226.195 70.4101 225.806 69.9306 225.317C69.451 224.828 69.0724 224.25 68.8164 223.614C68.5605 222.979 68.4321 222.299 68.4387 221.614L69.1467 136.306C69.1586 134.948 69.6999 133.647 70.6552 132.682C71.6106 131.717 72.9045 131.163 74.2615 131.139L158.282 132.735C159.992 132.768 161.619 133.474 162.812 134.701C164.004 135.928 164.665 137.577 164.65 139.288L163.934 222.409C163.929 223.094 163.789 223.771 163.523 224.402C163.256 225.033 162.868 225.605 162.381 226.086C161.893 226.566 161.316 226.946 160.682 227.203C160.048 227.46 159.369 227.589 158.685 227.584Z" fill="white"/>
    <path opacity="0.6" d="M361.569 124.478L303.777 123.997C303.347 123.993 302.921 123.905 302.525 123.737C302.128 123.569 301.769 123.324 301.467 123.017C301.165 122.71 300.927 122.346 300.765 121.947C300.604 121.547 300.523 121.12 300.526 120.689L300.54 119.074C300.547 118.222 300.885 117.407 301.481 116.8C302.078 116.193 302.887 115.842 303.737 115.822L361.55 114.389C361.99 114.378 362.427 114.455 362.836 114.617C363.245 114.779 363.617 115.021 363.931 115.33C364.244 115.639 364.493 116.008 364.661 116.415C364.829 116.821 364.914 117.258 364.91 117.698L364.88 121.224C364.877 121.656 364.789 122.082 364.62 122.48C364.452 122.877 364.207 123.237 363.899 123.539C363.592 123.842 363.227 124.08 362.828 124.241C362.428 124.402 362 124.483 361.569 124.478Z" fill="white"/>
    <path opacity="0.6" d="M374.021 229.602L288.938 228.892C288.255 228.886 287.579 228.746 286.95 228.479C286.32 228.212 285.75 227.823 285.27 227.335C284.791 226.847 284.412 226.27 284.156 225.635C283.9 225.001 283.771 224.322 283.777 223.638L284.484 138.33C284.495 136.971 285.036 135.67 285.992 134.705C286.947 133.739 288.242 133.186 289.599 133.163L373.618 134.759C375.328 134.791 376.956 135.498 378.148 136.725C379.341 137.952 380.001 139.6 379.986 141.312L379.271 224.432C379.26 225.814 378.7 227.135 377.716 228.105C376.731 229.075 375.403 229.613 374.021 229.602Z" fill="white"/>
    <path opacity="0.6" d="M377.927 299.154C377.927 300.512 377.658 301.857 377.134 303.111C376.61 304.364 375.843 305.501 374.877 306.455C373.91 307.409 372.764 308.161 371.505 308.668C370.246 309.175 368.899 309.427 367.542 309.408L72.0602 305.076C69.6953 305.043 67.4387 304.078 65.7783 302.392C64.118 300.706 63.1873 298.434 63.1875 296.066V244.745C63.1875 243.555 63.4229 242.376 63.8803 241.278C64.3378 240.179 65.008 239.182 65.8525 238.344C66.6969 237.507 67.6988 236.845 68.8002 236.397C69.9016 235.949 71.0808 235.723 72.2696 235.734L369.008 238.242C371.342 238.26 373.578 239.185 375.244 240.822C376.91 242.459 377.875 244.68 377.936 247.016L377.927 299.154Z" fill="white"/>
    <path opacity="0.6" d="M365.38 344.906L71.2969 341.122C69.1347 341.094 67.0705 340.215 65.5513 338.674C64.0322 337.134 63.1805 335.056 63.1807 332.891V320.911C63.1806 320.181 63.3254 319.458 63.6068 318.784C63.8881 318.11 64.3003 317.499 64.8195 316.986C65.3386 316.473 65.9544 316.069 66.6311 315.796C67.3077 315.523 68.0318 315.388 68.7611 315.397L371.809 319.393C373.884 319.421 375.865 320.266 377.323 321.745C378.781 323.224 379.598 325.218 379.598 327.296V330.859C379.598 332.719 379.228 334.561 378.511 336.277C377.794 337.994 376.744 339.55 375.421 340.857C374.099 342.164 372.53 343.195 370.806 343.89C369.083 344.585 367.238 344.93 365.38 344.906Z" fill="white"/>
    <path d="M33.1236 113.264C-13.568 172.698 -3.29151 258.763 56.0773 305.505C104.325 343.494 170.162 343.809 218.192 310.679L424.462 473.076C426.147 474.403 428.14 475.283 430.256 475.633C432.372 475.983 434.542 475.793 436.564 475.079L461.708 466.205C462.135 466.055 462.554 465.881 462.963 465.686C463.077 465.63 463.188 465.57 463.309 465.512C463.612 465.354 463.907 465.187 464.193 465.012C464.29 464.951 464.389 464.89 464.484 464.826C464.843 464.594 465.19 464.343 465.523 464.074L465.538 464.062C467.3 462.619 468.644 460.73 469.428 458.591C470.213 456.452 470.41 454.141 469.999 451.9L460.943 402.438C460.383 399.383 458.729 396.638 456.29 394.718L435.623 378.444L427.117 389.27L409.368 375.296L417.874 364.471L401.276 351.399L393.452 361.359L371.882 344.378L379.714 334.418L371.676 328.091L367.65 333.217L349.567 318.981L353.577 313.85L339.513 302.777L331.008 313.602L320.968 305.694L329.474 294.867L320.766 288.012L312.262 298.837L294.849 285.129L303.353 274.303L278.878 255.033L268.395 246.781C289.234 192.247 273.415 128.275 225.159 90.2858C165.792 43.5443 79.8134 53.8318 33.1236 113.264ZM109.518 138.14C113.824 141.529 117.029 146.121 118.728 151.334C120.427 156.547 120.544 162.148 119.063 167.427C117.583 172.707 114.571 177.428 110.41 180.994C106.249 184.561 101.125 186.811 95.686 187.462C90.247 188.113 84.7373 187.134 79.8538 184.65C74.9703 182.166 70.9324 178.288 68.2506 173.507C65.5689 168.725 64.3638 163.255 64.7878 157.788C65.2118 152.321 67.2458 147.102 70.6326 142.792C75.1732 137.014 81.8206 133.278 89.1127 132.405C96.4048 131.533 103.745 133.596 109.518 138.14Z" fill="url(#paint5_linear_245_3016)"/>
    <path d="M211.09 191.241L308.873 268.226L300.369 279.052L317.782 292.76L326.286 281.936L334.994 288.791L326.488 299.617L336.528 307.525L345.033 296.701L359.097 307.773L355.069 312.9L373.161 327.14L377.187 322.015L385.225 328.341L377.401 338.301L398.972 355.282L406.796 345.324L423.401 358.396L414.895 369.221L432.644 383.195L441.149 372.369L461.81 388.636C464.249 390.556 465.904 393.302 466.462 396.358L475.519 445.818C476.065 448.802 475.53 451.883 474.01 454.507C472.49 457.131 470.085 459.127 467.227 460.136L442.084 469.009C440.061 469.723 437.891 469.913 435.775 469.563C433.659 469.213 431.666 468.333 429.98 467.006L180.979 270.964L211.09 191.241Z" fill="url(#paint6_linear_245_3016)"/>
    <path d="M61.597 299.428C120.968 346.169 206.942 335.88 253.632 276.449C300.322 217.019 290.052 130.949 230.682 84.2054C171.311 37.4621 85.3331 47.7548 38.6433 107.187C-8.04647 166.619 2.22826 252.686 61.597 299.428ZM80.7964 175.642C76.4906 172.252 73.2856 167.661 71.5867 162.448C69.8878 157.234 69.7713 151.634 71.252 146.355C72.7327 141.075 75.744 136.354 79.9051 132.788C84.0662 129.222 89.1903 126.971 94.6292 126.32C100.068 125.67 105.578 126.648 110.461 129.132C115.345 131.616 119.382 135.494 122.064 140.275C124.746 145.057 125.951 150.527 125.527 155.994C125.104 161.461 123.07 166.68 119.683 170.99C115.143 176.768 108.495 180.505 101.202 181.377C93.9097 182.25 86.5696 180.187 80.7964 175.642Z" fill="url(#paint7_linear_245_3016)"/>
    <path d="M223.711 304.614L429.98 467.004C431.666 468.331 433.659 469.211 435.775 469.561C437.891 469.911 440.061 469.721 442.084 469.007L467.227 460.134C469.042 459.491 470.688 458.443 472.039 457.071C473.39 455.698 474.412 454.036 475.027 452.21C458.658 425.301 277.2 298.339 273.352 278.943C271.983 272.045 273.467 262.308 284.397 248.956L273.915 240.704C294.752 186.17 278.935 122.2 230.678 84.2087C171.311 37.4672 85.3331 47.7547 38.6433 107.187C-8.04647 166.619 2.22826 252.686 61.597 299.428C109.85 337.419 175.682 337.732 223.711 304.614ZM115.034 132.063C119.34 135.453 122.544 140.045 124.242 145.259C125.941 150.472 126.056 156.073 124.575 161.352C123.094 166.631 120.082 171.352 115.92 174.918C111.758 178.483 106.633 180.733 101.194 181.383C95.755 182.033 90.2454 181.053 85.3623 178.568C80.4792 176.083 76.4419 172.205 73.761 167.423C71.0802 162.64 69.8761 157.17 70.3011 151.703C70.7262 146.236 72.7612 141.018 76.1489 136.708C80.6906 130.931 87.3384 127.196 94.6305 126.325C101.923 125.454 109.262 127.518 115.034 132.063Z" fill="url(#paint8_linear_245_3016)"/>
    <path d="M78.1872 278.309C125.905 315.876 195.007 307.607 232.535 259.839C270.063 212.072 261.801 142.896 214.085 105.328C166.369 67.7599 97.2654 76.0304 59.7391 123.796C22.2128 171.562 30.471 240.741 78.1872 278.309ZM80.7957 175.642C76.4899 172.253 73.285 167.661 71.5861 162.448C69.8872 157.235 69.7707 151.634 71.2514 146.355C72.732 141.076 75.7433 136.354 79.9044 132.788C84.0656 129.222 89.1896 126.971 94.6286 126.321C100.068 125.67 105.577 126.649 110.46 129.132C115.344 131.616 119.382 135.494 122.064 140.276C124.745 145.057 125.951 150.527 125.527 155.994C125.103 161.461 123.069 166.68 119.683 170.99C115.142 176.769 108.494 180.505 101.202 181.378C93.909 182.25 86.5689 180.187 80.7957 175.642Z" fill="url(#paint9_linear_245_3016)"/>
    <path d="M122.528 479.118C117.162 479.582 107.824 480.331 100.469 480.662C96.0486 480.858 93.5042 480.425 92.0381 479.837C92.0381 480.002 92.0381 480.158 92.0519 480.303C92.0721 480.68 92.2311 481.035 92.4981 481.301C92.7651 481.567 93.1212 481.724 93.4972 481.741C103.117 482.29 112.759 482.3 122.379 481.771C122.565 481.762 122.745 481.705 122.903 481.606C123.06 481.506 123.189 481.368 123.278 481.205C123.367 481.041 123.412 480.858 123.409 480.671C123.406 480.485 123.356 480.303 123.262 480.142C123.042 479.784 122.797 479.441 122.528 479.118Z" fill="url(#paint10_linear_245_3016)"/>
    <path d="M100.471 480.664C107.826 480.34 117.156 479.584 122.53 479.12C117.246 472.629 100.471 468.253 100.471 468.253H95.7337C92.4761 472.956 92.0036 477.437 92.0399 479.839C93.506 480.424 96.0505 480.858 100.471 480.664Z" fill="url(#paint11_linear_245_3016)"/>
    <path d="M94.9365 460.51L95.3796 469.293C95.4021 469.757 95.5849 470.199 95.8969 470.543C96.2089 470.887 96.6306 471.111 97.0898 471.178C98.2828 471.357 99.5009 471.256 100.649 470.884C101.055 470.752 101.419 470.512 101.7 470.19C101.982 469.868 102.171 469.475 102.248 469.054L103.78 460.505L94.9365 460.51Z" fill="url(#paint12_linear_245_3016)"/>
    <path d="M33.4026 480.596C31.0711 480.272 30.0169 479.059 29.5738 477.763L29.5652 477.797C29.219 479.165 30.0169 480.582 31.6077 481.263C33.5272 482.077 35.6286 482.216 37.2591 482.149C39.0091 482.076 40.6154 481.351 41.4964 480.192L41.5102 480.173C39.7603 481.036 37.2885 481.14 33.4026 480.596Z" fill="url(#paint13_linear_245_3016)"/>
    <path d="M44.3925 460.454H40.4858C34.5349 460.333 30.7927 472.897 29.5811 477.763C30.0242 479.059 31.0783 480.272 33.4098 480.596C37.2958 481.14 39.7623 481.036 41.5175 480.166C44.7318 475.931 46.326 469.73 47.0928 466.108C47.9565 461.991 44.3925 460.454 44.3925 460.454Z" fill="url(#paint14_linear_245_3016)"/>
    <path d="M40.9875 452.303L38.8186 460.941C38.6904 461.456 38.7403 461.999 38.9605 462.481C39.1806 462.964 39.5577 463.357 40.0303 463.597C41.2419 464.221 42.9538 464.876 44.5307 464.686C44.8916 464.638 45.2322 464.491 45.5142 464.261C45.7961 464.03 46.0082 463.725 46.1266 463.381L49.3115 454.293L40.9875 452.303Z" fill="url(#paint15_linear_245_3016)"/>
    <path d="M38.4004 454.798C41.0989 457.197 49.8781 457.512 49.8781 457.512C81.502 381.53 94.4389 370.736 94.4389 370.736C89.8727 399.416 93.7032 462.908 93.7032 462.908C98.9202 465.212 105.647 462.908 105.647 462.908C106.036 422.334 111.464 381.967 121.806 342.735C100.433 342.253 89.0661 334.937 85.355 331.992C67.53 360.742 38.4004 454.798 38.4004 454.798Z" fill="url(#paint16_linear_245_3016)"/>
    <path d="M90.7742 244.608C86.729 264.809 88.1778 300.967 89.1298 317.457C89.3981 322.093 86.1665 328.519 83.5528 332.903C83.4556 333.065 83.3927 333.245 83.3682 333.432C83.3436 333.62 83.3578 333.81 83.4099 333.991C83.4621 334.173 83.551 334.342 83.6712 334.487C83.7913 334.633 83.9402 334.752 84.1084 334.837C88.4824 337.09 103.301 344.062 120.475 344.931C121.033 344.952 121.582 344.783 122.03 344.45C122.478 344.117 122.799 343.64 122.94 343.099C135.679 295.479 150.477 265.05 150.477 265.05C134.141 238.942 90.7742 244.608 90.7742 244.608Z" fill="url(#paint17_linear_245_3016)"/>
    <path d="M96.5975 368.938C96.418 368.937 96.2418 368.889 96.087 368.798C95.9321 368.707 95.8042 368.577 95.7162 368.42C95.6282 368.264 95.5833 368.086 95.5861 367.907C95.5889 367.727 95.6392 367.551 95.7321 367.397C95.9051 367.117 99.9936 360.498 108.271 356.5C108.513 356.383 108.791 356.367 109.045 356.456C109.299 356.544 109.507 356.73 109.624 356.972C109.74 357.214 109.756 357.493 109.668 357.747C109.579 358.001 109.394 358.209 109.152 358.326C101.434 362.054 97.5011 368.389 97.4612 368.451C97.3713 368.6 97.2445 368.723 97.0932 368.808C96.9419 368.893 96.7712 368.938 96.5975 368.938Z" fill="url(#paint18_linear_245_3016)"/>
    <path d="M65.3984 302.585C66.6984 311.996 70.5375 322.26 78.2194 333.165L81.1308 330.779C81.1308 330.779 77.7607 317.09 79.6768 301.552C74.9462 300.629 69.3501 301.585 65.3984 302.585Z" fill="url(#paint19_linear_245_3016)"/>
    <path d="M95.293 269.534L90.7753 244.608C90.7753 244.608 60.5828 267.706 65.3983 302.585C69.35 301.585 74.946 300.63 79.6835 301.556C81.0648 290.366 85.1861 278.215 95.293 269.534Z" fill="url(#paint20_linear_245_3016)"/>
    <path d="M150.478 265.05L138.824 290.175C140.709 305.344 148.848 311.902 157.625 314.418C158.057 308.791 159.377 303.269 161.539 298.057C150.324 286.465 150.478 265.05 150.478 265.05Z" fill="url(#paint21_linear_245_3016)"/>
    <path d="M161.538 298.057C159.376 303.269 158.055 308.791 157.624 314.418C181.04 323.513 187.235 305.875 187.235 305.875L182.908 305.111C173.135 306.141 166.308 302.987 161.538 298.057Z" fill="url(#paint22_linear_245_3016)"/>
    <path d="M139.741 234.031L134.114 254.736C133.965 255.285 133.702 255.796 133.342 256.235C132.981 256.675 132.532 257.033 132.024 257.286C131.515 257.539 130.959 257.681 130.391 257.704C129.824 257.726 129.258 257.628 128.731 257.415C126.318 256.45 123.256 255.131 120.622 253.709C119.959 253.347 119.379 252.851 118.919 252.252C118.459 251.653 118.128 250.965 117.949 250.231C117.77 249.497 117.746 248.734 117.878 247.99C118.01 247.246 118.296 246.538 118.718 245.911L130.415 228.452L139.741 234.031Z" fill="url(#paint23_linear_245_3016)"/>
    <path d="M197.968 292.02L53.8049 344.546C52.3749 345.067 51.0679 345.879 49.9662 346.929C48.8644 347.98 47.9916 349.248 47.4025 350.653C46.8135 352.058 46.5209 353.569 46.5432 355.092C46.5655 356.616 46.9021 358.118 47.532 359.505L47.9682 360.468C48.5286 361.701 49.3269 362.811 50.3174 363.734C51.3079 364.657 52.471 365.375 53.7396 365.846C55.0083 366.317 56.3575 366.533 57.7096 366.48C59.0618 366.427 60.3901 366.107 61.6182 365.538L201.603 300.712L197.968 292.02Z" fill="url(#paint24_linear_245_3016)"/>
    <g opacity="0.32">
        <path d="M264.232 330.38C303.536 330.38 335.399 299.059 335.399 260.423C335.399 221.787 303.536 190.466 264.232 190.466C224.928 190.466 193.065 221.787 193.065 260.423C193.065 299.059 224.928 330.38 264.232 330.38Z" fill="#BDD0FB"/>
    </g>
    <path d="M264.232 182.58C220.497 182.58 185.044 217.431 185.044 260.423C185.044 303.415 220.497 338.268 264.232 338.268C307.967 338.268 343.421 303.416 343.421 260.423C343.421 217.429 307.967 182.58 264.232 182.58ZM264.232 326.833C226.922 326.833 196.676 297.1 196.676 260.423C196.676 223.745 226.922 194.014 264.232 194.014C301.542 194.014 331.79 223.747 331.79 260.423C331.79 297.099 301.543 326.833 264.232 326.833Z" fill="url(#paint25_linear_245_3016)"/>
    <path d="M191.064 270.068C190.936 270.065 190.813 270.017 190.718 269.932C190.623 269.846 190.561 269.729 190.545 269.602C190.31 267.746 190.143 265.869 190.053 264.02C190.05 263.951 190.06 263.881 190.083 263.815C190.107 263.749 190.143 263.688 190.189 263.637C190.236 263.585 190.293 263.543 190.356 263.513C190.419 263.483 190.487 263.466 190.557 263.462C190.628 263.454 190.7 263.46 190.768 263.482C190.836 263.504 190.899 263.54 190.952 263.588C191.005 263.636 191.047 263.694 191.076 263.76C191.104 263.826 191.118 263.897 191.116 263.968C191.205 265.79 191.369 267.64 191.601 269.468C191.619 269.608 191.58 269.749 191.494 269.861C191.407 269.972 191.28 270.045 191.141 270.063L191.064 270.068ZM191.608 248.301C191.576 248.303 191.544 248.303 191.513 248.301C191.374 248.275 191.251 248.196 191.17 248.08C191.09 247.964 191.059 247.821 191.083 247.682C191.984 242.665 193.416 237.759 195.355 233.045C206.771 205.321 233.808 187.409 264.232 187.409C278.334 187.385 292.157 191.34 304.116 198.82C304.227 198.898 304.304 199.017 304.331 199.151C304.358 199.285 304.333 199.424 304.26 199.54C304.188 199.655 304.074 199.739 303.941 199.773C303.809 199.807 303.669 199.789 303.55 199.722C291.76 192.348 278.134 188.449 264.232 188.473C234.239 188.473 207.589 206.13 196.338 233.453C194.428 238.094 193.017 242.926 192.131 247.868C192.107 247.989 192.042 248.098 191.946 248.177C191.851 248.256 191.731 248.299 191.608 248.299V248.301Z" fill="#91B3FA"/>
    <path d="M152.049 218.301C152.099 218.648 147.356 241.927 147.356 241.927L134.141 238.942L135.363 216.217C135.363 216.217 151.19 212.347 152.049 218.301Z" fill="url(#paint26_linear_245_3016)"/>
    <path d="M138.335 221.268L136.756 233.18C136.734 233.332 136.734 233.485 136.756 233.636C136.889 234.57 137.583 237.748 140.789 236.84C143.697 236.015 146.364 235.305 148.206 235.87C148.605 235.992 148.944 236.258 149.157 236.617C149.371 236.976 149.442 237.401 149.359 237.81C148.928 239.924 147.867 244.67 146.318 248.652C146.164 249.042 145.871 249.36 145.495 249.543C145.119 249.727 144.688 249.762 144.287 249.644C141.781 248.912 136.538 247.218 132.638 244.871C132.378 244.717 132.165 244.495 132.021 244.229C131.877 243.963 131.807 243.663 131.819 243.361C131.948 240.354 132.299 231.212 132.003 228.649C131.724 226.244 128.776 224.803 127.503 224.286C127.295 224.203 127.107 224.078 126.949 223.92C126.792 223.761 126.668 223.572 126.585 223.364C125.991 221.876 125.174 218.433 129.509 217.021C129.724 216.952 129.922 216.84 130.093 216.692C130.264 216.545 130.403 216.364 130.502 216.161C130.602 215.958 130.659 215.737 130.671 215.511C130.683 215.286 130.649 215.06 130.571 214.848C129.931 213.058 129.659 210.327 133.014 208.823C136.422 207.293 138.968 209.112 140.343 210.59C140.613 210.877 140.975 211.059 141.365 211.105C141.756 211.152 142.151 211.059 142.48 210.843C142.873 210.596 143.379 210.514 143.99 210.894C144.187 211.012 144.407 211.088 144.636 211.116C144.864 211.144 145.096 211.125 145.316 211.058C145.537 210.991 145.741 210.879 145.915 210.729C146.09 210.578 146.231 210.393 146.33 210.185C147.145 208.508 148.808 206.719 152.147 207.282C158.069 208.298 158.74 214.867 157.177 218.719C155.614 222.571 149.257 221.103 146.067 219.162C143.643 217.686 140.497 219.233 139.127 220.058C138.913 220.188 138.731 220.364 138.594 220.573C138.457 220.782 138.368 221.02 138.335 221.268Z" fill="url(#paint27_linear_245_3016)"/>
    <path d="M131.472 232.997C131.472 232.997 133.908 226.173 131.406 224.506C128.905 222.839 125.201 223.702 126.016 228.648C127.031 234.792 131.472 232.997 131.472 232.997Z" fill="url(#paint28_linear_245_3016)"/>
    <path d="M79.9355 330.366L93.5631 329.254L99.4655 334.702C99.4655 334.702 98.0704 336.634 93.7033 335.523C89.3362 334.412 83.3593 334.137 83.3593 334.137C83.3593 334.137 77.3322 336.856 77.2578 331.766L79.9355 330.366Z" fill="url(#paint29_linear_245_3016)"/>
    <path d="M185.504 309.102C186.682 310.024 190.719 308.099 193.191 306.77C193.775 306.457 194.233 305.95 194.484 305.336C194.735 304.722 194.763 304.04 194.565 303.406C193.97 301.528 192.98 299.106 191.759 298.801C189.729 298.293 180.643 305.307 185.504 309.102Z" fill="url(#paint30_linear_245_3016)"/>
    <path d="M56.6482 363.528C56.5893 363.528 56.5309 363.518 56.4751 363.499C50.8444 361.55 49.5341 358.219 49.4285 355.769C49.2727 352.186 51.5212 348.862 55.0211 347.495L72.3303 340.737C72.3954 340.712 72.4649 340.7 72.5347 340.701C72.6045 340.703 72.6733 340.718 72.7372 340.747C72.8011 340.775 72.8588 340.815 72.9071 340.866C72.9553 340.917 72.9931 340.976 73.0183 341.041C73.0436 341.107 73.0557 341.176 73.0541 341.246C73.0525 341.316 73.0372 341.385 73.0089 341.449C72.9807 341.513 72.9402 341.57 72.8897 341.619C72.8392 341.667 72.7797 341.705 72.7146 341.73L55.4054 348.488C52.3295 349.689 50.3546 352.595 50.4896 355.722C50.6228 358.807 52.7536 361.083 56.823 362.492C56.9432 362.533 57.0451 362.615 57.1104 362.723C57.1757 362.832 57.2002 362.961 57.1793 363.086C57.1585 363.211 57.0937 363.325 56.9967 363.407C56.8997 363.488 56.7767 363.533 56.6499 363.532L56.6482 363.528Z" fill="#91B3FA"/>
    <path d="M77.8552 339.676C77.7306 339.677 77.6097 339.634 77.5136 339.555C77.4174 339.475 77.3522 339.365 77.3294 339.242C77.3065 339.12 77.3273 338.993 77.3883 338.884C77.4493 338.775 77.5466 338.691 77.6631 338.647L79.9133 337.772C80.0448 337.721 80.1913 337.724 80.3205 337.781C80.4497 337.838 80.551 337.944 80.6022 338.075C80.6534 338.207 80.6502 338.354 80.5934 338.483C80.5366 338.612 80.4308 338.714 80.2993 338.765L78.0491 339.64C77.9873 339.664 77.9215 339.676 77.8552 339.676Z" fill="#91B3FA"/>
    <defs>
        <linearGradient id="paint0_linear_245_3016" x1="526.928" y1="606.849" x2="109.901" y2="89.4808" gradientUnits="userSpaceOnUse">
            <stop stop-color="#DAE3FE"/>
            <stop offset="1" stop-color="#E9EFFD"/>
        </linearGradient>
        <linearGradient id="paint1_linear_245_3016" x1="296.713" y1="311.923" x2="442.304" y2="311.923" gradientUnits="userSpaceOnUse">
            <stop stop-color="#DAE3FE"/>
            <stop offset="1" stop-color="#E9EFFD"/>
        </linearGradient>
        <linearGradient id="paint2_linear_245_3016" x1="432.652" y1="260.425" x2="465.895" y2="260.425" gradientUnits="userSpaceOnUse">
            <stop stop-color="#DAE3FE"/>
            <stop offset="1" stop-color="#E9EFFD"/>
        </linearGradient>
        <linearGradient id="paint3_linear_245_3016" x1="49.4938" y1="395.605" x2="668.639" y2="-313.586" gradientUnits="userSpaceOnUse">
            <stop stop-color="#4F52FF"/>
            <stop offset="1" stop-color="#4042E2"/>
        </linearGradient>
        <linearGradient id="paint4_linear_245_3016" x1="284.431" y1="-154.782" x2="185.138" y2="149.076" gradientUnits="userSpaceOnUse">
            <stop stop-color="#53D8FF"/>
            <stop offset="1" stop-color="#3840F7"/>
        </linearGradient>
        <linearGradient id="paint5_linear_245_3016" x1="283.383" y1="235.61" x2="190.363" y2="380.185" gradientUnits="userSpaceOnUse">
            <stop stop-color="#E1473D"/>
            <stop offset="1" stop-color="#E9605A"/>
        </linearGradient>
        <linearGradient id="paint6_linear_245_3016" x1="211.602" y1="491.397" x2="354.565" y2="307.907" gradientUnits="userSpaceOnUse">
            <stop stop-color="#E1473D"/>
            <stop offset="1" stop-color="#E9605A"/>
        </linearGradient>
        <linearGradient id="paint7_linear_245_3016" x1="74.1233" y1="49.6238" x2="398.942" y2="689.434" gradientUnits="userSpaceOnUse">
            <stop stop-color="#FF9085"/>
            <stop offset="1" stop-color="#FB6FBB"/>
        </linearGradient>
        <linearGradient id="paint8_linear_245_3016" x1="31.1121" y1="437.772" x2="363.67" y2="202.461" gradientUnits="userSpaceOnUse">
            <stop stop-color="#FF928E"/>
            <stop offset="1" stop-color="#FE7062"/>
        </linearGradient>
        <linearGradient id="paint9_linear_245_3016" x1="200.504" y1="-50.4654" x2="119.868" y2="308.112" gradientUnits="userSpaceOnUse">
            <stop stop-color="#E1473D"/>
            <stop offset="1" stop-color="#E9605A"/>
        </linearGradient>
        <linearGradient id="paint10_linear_245_3016" x1="92.0381" y1="480.638" x2="123.414" y2="480.638" gradientUnits="userSpaceOnUse">
            <stop stop-color="#4F52FF"/>
            <stop offset="1" stop-color="#4042E2"/>
        </linearGradient>
        <linearGradient id="paint11_linear_245_3016" x1="92.0382" y1="474.481" x2="122.53" y2="474.481" gradientUnits="userSpaceOnUse">
            <stop stop-color="#09005D"/>
            <stop offset="1" stop-color="#1A0F91"/>
        </linearGradient>
        <linearGradient id="paint12_linear_245_3016" x1="94.9348" y1="465.887" x2="103.773" y2="465.887" gradientUnits="userSpaceOnUse">
            <stop stop-color="#FEBBBA"/>
            <stop offset="1" stop-color="#FF928E"/>
        </linearGradient>
        <linearGradient id="paint13_linear_245_3016" x1="29.4855" y1="479.96" x2="41.5102" y2="479.96" gradientUnits="userSpaceOnUse">
            <stop stop-color="#4F52FF"/>
            <stop offset="1" stop-color="#4042E2"/>
        </linearGradient>
        <linearGradient id="paint14_linear_245_3016" x1="29.5741" y1="470.691" x2="47.2226" y2="470.691" gradientUnits="userSpaceOnUse">
            <stop stop-color="#09005D"/>
            <stop offset="1" stop-color="#1A0F91"/>
        </linearGradient>
        <linearGradient id="paint15_linear_245_3016" x1="38.7477" y1="458.512" x2="49.3097" y2="458.512" gradientUnits="userSpaceOnUse">
            <stop stop-color="#FEBBBA"/>
            <stop offset="1" stop-color="#FF928E"/>
        </linearGradient>
        <linearGradient id="paint16_linear_245_3016" x1="-25.9136" y1="534.956" x2="113.005" y2="377.952" gradientUnits="userSpaceOnUse">
            <stop stop-color="#09005D"/>
            <stop offset="1" stop-color="#1A0F91"/>
        </linearGradient>
        <linearGradient id="paint17_linear_245_3016" x1="207.241" y1="141.3" x2="57.9878" y2="367.805" gradientUnits="userSpaceOnUse">
            <stop stop-color="#4F52FF"/>
            <stop offset="1" stop-color="#4042E2"/>
        </linearGradient>
        <linearGradient id="paint18_linear_245_3016" x1="74.3414" y1="419.353" x2="79.4112" y2="409.224" gradientUnits="userSpaceOnUse">
            <stop stop-color="#4F52FF"/>
            <stop offset="1" stop-color="#4042E2"/>
        </linearGradient>
        <linearGradient id="paint19_linear_245_3016" x1="87.1388" y1="304.387" x2="49.5044" y2="337.679" gradientUnits="userSpaceOnUse">
            <stop stop-color="#FEBBBA"/>
            <stop offset="1" stop-color="#FF928E"/>
        </linearGradient>
        <linearGradient id="paint20_linear_245_3016" x1="181.155" y1="124.113" x2="31.9039" y2="350.618" gradientUnits="userSpaceOnUse">
            <stop stop-color="#4F52FF"/>
            <stop offset="1" stop-color="#4042E2"/>
        </linearGradient>
        <linearGradient id="paint21_linear_245_3016" x1="238.226" y1="161.718" x2="88.9745" y2="388.223" gradientUnits="userSpaceOnUse">
            <stop stop-color="#4F52FF"/>
            <stop offset="1" stop-color="#4042E2"/>
        </linearGradient>
        <linearGradient id="paint22_linear_245_3016" x1="157.624" y1="307.541" x2="187.235" y2="307.541" gradientUnits="userSpaceOnUse">
            <stop stop-color="#FEBBBA"/>
            <stop offset="1" stop-color="#FF928E"/>
        </linearGradient>
        <linearGradient id="paint23_linear_245_3016" x1="106.622" y1="269.59" x2="140.121" y2="233.532" gradientUnits="userSpaceOnUse">
            <stop stop-color="#FEBBBA"/>
            <stop offset="1" stop-color="#FF928E"/>
        </linearGradient>
        <linearGradient id="paint24_linear_245_3016" x1="74.2263" y1="329.254" x2="229.289" y2="329.254" gradientUnits="userSpaceOnUse">
            <stop stop-color="#09005D"/>
            <stop offset="1" stop-color="#1A0F91"/>
        </linearGradient>
        <linearGradient id="paint25_linear_245_3016" x1="185.042" y1="260.423" x2="343.421" y2="260.423" gradientUnits="userSpaceOnUse">
            <stop stop-color="#09005D"/>
            <stop offset="1" stop-color="#1A0F91"/>
        </linearGradient>
        <linearGradient id="paint26_linear_245_3016" x1="146.823" y1="219.249" x2="124.988" y2="258.8" gradientUnits="userSpaceOnUse">
            <stop stop-color="#FEBBBA"/>
            <stop offset="1" stop-color="#FF928E"/>
        </linearGradient>
        <linearGradient id="paint27_linear_245_3016" x1="121.969" y1="225.153" x2="216.413" y2="237.082" gradientUnits="userSpaceOnUse">
            <stop stop-color="#09005D"/>
            <stop offset="1" stop-color="#1A0F91"/>
        </linearGradient>
        <linearGradient id="paint28_linear_245_3016" x1="125.194" y1="234.287" x2="143.63" y2="208.993" gradientUnits="userSpaceOnUse">
            <stop stop-color="#FEBBBA"/>
            <stop offset="1" stop-color="#FF928E"/>
        </linearGradient>
        <linearGradient id="paint29_linear_245_3016" x1="101.989" y1="321.172" x2="64.353" y2="354.464" gradientUnits="userSpaceOnUse">
            <stop stop-color="#FEBBBA"/>
            <stop offset="1" stop-color="#FF928E"/>
        </linearGradient>
        <linearGradient id="paint30_linear_245_3016" x1="188.704" y1="304.058" x2="199.308" y2="304.058" gradientUnits="userSpaceOnUse">
            <stop stop-color="#FEBBBA"/>
            <stop offset="1" stop-color="#FF928E"/>
        </linearGradient>
    </defs>
</svg>
