<svg width="17" height="16" viewBox="0 0 17 16" fill="none" xmlns="http://www.w3.org/2000/svg">
    <path d="M6.03114 5.86655C6.55972 5.05355 7.08323 4.21839 7.4099 3.40102C7.5484 3.05446 7.97525 2.89162 8.27213 3.11777C10.0701 4.4874 12.7667 7.13499 12.7667 9.6C12.7667 10.2259 12.6604 10.7549 12.4839 11.1999M5.01499 7.46655C4.56045 8.24197 4.23334 8.96698 4.23334 9.6C4.23334 11.257 5.43098 12.4314 6.4101 12.9981C6.63442 13.128 6.85279 12.8571 6.73508 12.6262C6.47589 12.1176 6.22445 11.4609 6.22445 10.9333C6.22445 10.2019 6.78174 9.61414 7.1798 9.23723C7.28189 9.14056 7.44187 9.14206 7.53039 9.2513C7.69471 9.45411 7.85904 9.71084 8.02337 9.91866C8.11982 10.0406 8.29952 10.0298 8.38418 9.89938C8.91011 9.08894 9.03207 8.05486 9.06035 7.28195C9.06889 7.04866 9.34193 6.93406 9.49847 7.10725C10.1832 7.8648 11.06 9.09301 11.06 10.1333C11.06 11.1018 10.5172 12.1313 10.0477 12.8061C9.91005 13.0039 10.0613 13.2721 10.2914 13.2005C10.5658 13.1151 10.8608 12.987 11.1482 12.8061" stroke="white" stroke-width="0.8" stroke-linecap="round"/>
</svg>
