<svg width="105" height="24" viewBox="0 0 105 24" fill="none" xmlns="http://www.w3.org/2000/svg">
    <g clip-path="url(#clip0_703_925)">
        <path d="M16.1256 10.486V17.5269L12.4036 19.6391V18.8205L11.1644 17.6023L12.4036 16.3855V15.3573L11.1644 14.1391L12.4036 12.9209V11.8941L9.92375 10.486L7.44245 11.8941V19.6391L3.72192 17.5269V10.486L9.92375 6.96411L16.1256 10.486Z" fill="#CD5237"/>
        <path d="M12.4037 4.14771V2.73953L10.7945 1.82589H13.6443V0H6.20183V1.82589H7.44248V4.14771L0 8.37225V19.6391L7.44248 23.8636V19.6391L3.72195 17.5268V10.4859L9.92378 6.96407L16.1256 10.4859V17.5268L12.4037 19.6391V23.8636L19.8461 19.6391V8.37225L12.4037 4.14771Z" fill="#202020"/>
        <path d="M105 16.5657C105 18.5131 103.426 19.6391 100.41 19.6391H94.4716V8.37225H100.077C102.946 8.37225 104.421 9.54713 104.421 11.306C104.432 11.8185 104.294 12.3235 104.024 12.7623C103.754 13.201 103.363 13.5554 102.896 13.7842C104.176 14.1866 104.994 15.1533 104.994 16.5699M97.1094 10.3406V12.9949H99.7486C101.043 12.9949 101.749 12.5437 101.749 11.6594C101.749 10.7751 101.038 10.3392 99.7486 10.3392L97.1094 10.3406ZM102.322 16.2961C102.322 15.3461 101.585 14.8991 100.208 14.8991H97.1151V17.6847H100.214C101.591 17.6847 102.328 17.2656 102.328 16.3003" fill="#CD5237"/>
        <path d="M89.3709 17.2251H84.0427L83.0268 19.6391H80.3051L85.427 8.37225H88.0492L93.1796 19.6391H90.3868L89.3709 17.2251ZM88.5343 15.2455L86.7146 10.9316L84.8949 15.2455H88.5343Z" fill="#CD5237"/>
        <path d="M70.5933 8.37225H73.2496V17.5142H79.0018V19.6391H70.5933V8.37225Z" fill="#CD5237"/>
        <path d="M58.8171 18.5508L59.7149 16.595C60.8235 17.348 62.1373 17.7559 63.4852 17.7657C65.0503 17.7657 65.6891 17.253 65.6891 16.5629C65.6891 14.4674 59.0462 15.9063 59.0462 11.739C59.0462 9.83213 60.6112 8.24652 63.8608 8.24652C65.2978 8.24652 66.7661 8.5832 67.8275 9.24119L67.0123 11.211C66.0526 10.653 64.9618 10.3492 63.8466 10.3295C62.2816 10.3295 61.6755 10.9064 61.6755 11.6105C61.6755 13.6781 68.3184 12.2517 68.3184 16.3715C68.3184 18.2463 66.7348 19.8486 63.471 19.8486C61.6584 19.8486 59.8316 19.3206 58.8186 18.5508" fill="#202020"/>
        <path d="M54.3084 15.6479V19.6391H51.6521V15.6157L47.2102 8.37225H50.0301L53.0948 13.3777L56.1608 8.37225H58.7673L54.3084 15.6479Z" fill="#202020"/>
        <path d="M46.2271 17.5464V19.6391H37.3419V8.37225H46.0137V10.465H39.9811V12.9111H45.3094V14.9396H39.9811V17.5464H46.2271Z" fill="#202020"/>
        <path d="M29.2691 15.2134L27.7282 16.7906V19.6391H25.089V8.37225H27.7282V13.6362L32.8103 8.37225H35.7611L31.0077 13.3945L36.04 19.6391H32.9412L29.2691 15.2134Z" fill="#202020"/>
    </g>
    <defs>
        <clipPath id="clip0_703_925">
            <rect width="105" height="23.8636" fill="white"/>
        </clipPath>
    </defs>
</svg>
