<svg width="136" height="34" viewBox="0 0 136 34" fill="none" xmlns="http://www.w3.org/2000/svg">
    <g clip-path="url(#clip0_692_475)">
        <path d="M37.9098 20.0617L35.9158 22.1428V25.8972H32.4996V11.04H35.9158V17.9806L42.4973 11.04H46.3179L40.1617 17.6634L46.677 25.8972H42.6646L37.9098 20.0617Z" fill="#FAFAFA"/>
        <path d="M59.8679 23.1398V25.8972H48.3643V11.04H59.5926V13.8009H51.7805V17.0254H58.6792V19.6992H51.7805V23.1398H59.8679Z" fill="#FAFAFA"/>
        <path d="M70.3328 20.6334V25.8972H66.8922V20.5916L61.1403 11.04H64.7936L68.7606 17.6424L72.7311 11.04H76.1056L70.3328 20.6334Z" fill="#FAFAFA"/>
        <path d="M91.4159 11.04H94.8565V23.098H102.306V25.8972H91.4159V11.04Z" fill="#FAFAFA"/>
        <path d="M115.748 22.7145H108.849L107.535 25.8972H104.011L110.634 11.04H114.005L120.628 25.8972H117.02L115.748 22.7145ZM114.664 20.1035L112.307 14.4144L109.954 20.1035H114.664Z" fill="#FAFAFA"/>
        <path d="M135.966 21.843C135.966 24.4122 133.931 25.8972 130.04 25.8972H122.371V11.04H129.632C133.345 11.04 135.255 12.5913 135.255 14.9025C135.27 15.5784 135.092 16.2446 134.743 16.8234C134.393 17.4023 133.887 17.8701 133.282 18.1723C134.083 18.387 134.788 18.8668 135.281 19.5335C135.774 20.2002 136.027 21.0143 135.998 21.843M125.791 13.6301V17.1335H129.207C130.884 17.1335 131.797 16.5374 131.797 15.3696C131.797 14.2018 130.884 13.6266 129.207 13.6266L125.791 13.6301ZM132.54 21.484C132.54 20.2325 131.585 19.6364 129.8 19.6364H125.791V23.3071H129.8C131.585 23.3071 132.54 22.7564 132.54 21.484Z" fill="#FAFAFA"/>
        <path d="M76.1682 24.4644L77.3326 21.8848C78.7678 22.8766 80.4683 23.4135 82.2129 23.4256C84.2417 23.4256 85.0679 22.7493 85.0679 21.843C85.0679 19.0751 76.4646 20.975 76.4646 15.4811C76.4646 12.9642 78.4933 10.8727 82.7009 10.8727C84.5589 10.8727 86.4623 11.3189 87.8358 12.1834L86.79 14.7839C85.5469 14.0485 84.1346 13.6473 82.6905 13.6196C80.6616 13.6196 79.8773 14.383 79.8773 15.3103C79.8773 18.0398 88.4806 16.1574 88.4806 21.585C88.4806 24.0566 86.4309 26.1726 82.2059 26.1726C79.8599 26.1726 77.4929 25.4754 76.1822 24.4609" fill="#FAFAFA"/>
        <path d="M16.0738 5.46947V3.61494L13.9822 2.40879H17.6704V0H8.03166V2.40879H9.6352V5.46947L0 11.047V25.9042L9.6352 31.4817L12.8492 33.3397L16.0598 31.4817L25.6985 25.9042V11.04L16.0738 5.46947ZM20.8914 23.1119L16.0738 25.9007V24.82L14.4702 23.213L16.0738 21.606V20.2499L14.4702 18.6464L16.0738 17.0394V15.6833L12.8632 13.8288L9.64915 15.6833V25.8972L4.83153 23.1084V13.8288L12.8492 9.18549L20.8669 13.8288L20.8914 23.1119Z" fill="#FAFAFA"/>
    </g>
    <defs>
        <clipPath id="clip0_692_475">
            <rect width="136" height="33.3397" fill="white"/>
        </clipPath>
    </defs>
</svg>
