<svg width="32" height="32" viewBox="0 0 32 32" fill="none" xmlns="http://www.w3.org/2000/svg">
    <path d="M16 32C24.8366 32 32 24.8366 32 16C32 7.16344 24.8366 0 16 0C7.16344 0 0 7.16344 0 16C0 24.8366 7.16344 32 16 32Z" fill="#FAFAFA"/>
    <path fill-rule="evenodd" clip-rule="evenodd" d="M16.0007 20.5907C14.8709 21.5431 13.4053 22.1179 11.8039 22.1179C8.23068 22.1179 5.33398 19.2558 5.33398 15.725C5.33398 12.1943 8.23068 9.33203 11.8039 9.33203C13.4053 9.33203 14.8709 9.90691 16.0007 10.8592C17.1304 9.90691 18.596 9.33203 20.1973 9.33203C23.7707 9.33203 26.6673 12.1943 26.6673 15.725C26.6673 19.2558 23.7707 22.1179 20.1973 22.1179C18.596 22.1179 17.1304 21.5431 16.0007 20.5907Z" fill="#ED0006"/>
    <path fill-rule="evenodd" clip-rule="evenodd" d="M16 20.5907C17.3911 19.4182 18.2732 17.6734 18.2732 15.725C18.2732 13.7766 17.3911 12.0318 16 10.8592C17.1297 9.90691 18.5953 9.33203 20.1967 9.33203C23.77 9.33203 26.6667 12.1943 26.6667 15.725C26.6667 19.2558 23.77 22.1179 20.1967 22.1179C18.5953 22.1179 17.1297 21.5431 16 20.5907Z" fill="#F9A000"/>
    <path fill-rule="evenodd" clip-rule="evenodd" d="M15.9998 20.5909C17.3908 19.4182 18.273 17.6734 18.273 15.7252C18.273 13.7768 17.3908 12.032 15.9998 10.8594C14.6087 12.032 13.7266 13.7768 13.7266 15.7252C13.7266 17.6734 14.6087 19.4182 15.9998 20.5909Z" fill="#FF5E00"/>
</svg>
