<svg width="32" height="32" viewBox="0 0 32 32" fill="none" xmlns="http://www.w3.org/2000/svg">
    <path d="M16 32C24.8366 32 32 24.8366 32 16C32 7.16344 24.8366 0 16 0C7.16344 0 0 7.16344 0 16C0 24.8366 7.16344 32 16 32Z" fill="#F1FFFB"/>
    <path d="M9.24947 13.5461L8.3584 16.633H8.20587L7.3148 13.5461C7.16227 13.0237 6.68386 12.6641 6.13706 12.6641H4V19.3841H6.13973V15.4125H6.29227L7.5172 19.3841H9.04707L10.2695 15.4125H10.4219V19.3841H12.5617V12.6641H10.4245C9.8804 12.6641 9.402 13.0237 9.24947 13.5461ZM21.0971 19.3841H23.2499V17.397H25.416C26.5489 17.397 27.5137 16.7565 27.8869 15.8561H21.0971V19.3841ZM17.2828 13.3729L15.7765 16.6357H15.6241V12.6641H13.4844V19.3841H15.3008C15.7792 19.3841 16.2129 19.1058 16.4127 18.6753L17.9189 15.415H18.0715V19.3841H20.2112V12.6641H18.3947C17.9163 12.6641 17.4827 12.9423 17.2828 13.3729Z" fill="#006848"/>
    <path d="M25.6298 12.6641C26.2475 12.6641 26.8075 12.9003 27.2307 13.2889C27.7039 13.7193 28.0008 14.3389 28.0008 15.0291C28.0008 15.171 27.9851 15.3101 27.9615 15.4466H23.9868C22.641 15.4466 21.5 14.5646 21.1163 13.3466C21.111 13.3334 21.1084 13.3177 21.1031 13.3019C21.0926 13.2651 21.0847 13.2258 21.0742 13.189C21.0348 13.0185 21.0086 12.8451 20.998 12.6641H25.6298Z" fill="url(#paint0_linear_193_36537)"/>
    <defs>
        <linearGradient id="paint0_linear_193_36537" x1="28.0008" y1="21.3663" x2="21.0408" y2="21.3663" gradientUnits="userSpaceOnUse">
            <stop stop-color="#1E5CD8"/>
            <stop offset="1" stop-color="#02AFFF"/>
        </linearGradient>
    </defs>
</svg>
