<svg width="16" height="10" viewBox="0 0 16 10" fill="none" xmlns="http://www.w3.org/2000/svg">
    <path fill-rule="evenodd" clip-rule="evenodd" d="M8 8.444C7.1527 9.1583 6.0535 9.5894 4.85246 9.5894C2.17252 9.5894 0 7.4428 0 4.7947C0 2.1467 2.17252 0 4.85246 0C6.0535 0 7.1527 0.43116 8 1.14539C8.8473 0.43116 9.9465 0 11.1475 0C13.8275 0 16 2.1467 16 4.7947C16 7.4428 13.8275 9.5894 11.1475 9.5894C9.9465 9.5894 8.8473 9.1583 8 8.444Z" fill="#ED0006"/>
    <path fill-rule="evenodd" clip-rule="evenodd" d="M8 8.444C9.0433 7.5646 9.7049 6.256 9.7049 4.7947C9.7049 3.3334 9.0433 2.0248 8 1.14539C8.8473 0.43116 9.9465 0 11.1475 0C13.8275 0 16 2.1467 16 4.7947C16 7.4428 13.8275 9.5894 11.1475 9.5894C9.9465 9.5894 8.8473 9.1583 8 8.444Z" fill="#F9A000"/>
    <path fill-rule="evenodd" clip-rule="evenodd" d="M8.00007 8.44318C9.04337 7.56368 9.70497 6.25508 9.70497 4.79388C9.70497 3.33258 9.04337 2.02398 8.00007 1.14453C6.95677 2.02398 6.29517 3.33258 6.29517 4.79388C6.29517 6.25508 6.95677 7.56368 8.00007 8.44318Z" fill="#FF5E00"/>
</svg>
