<svg width="18" height="6" viewBox="0 0 18 6" fill="none" xmlns="http://www.w3.org/2000/svg">
    <path fill-rule="evenodd" clip-rule="evenodd" d="M4.5002 5.8675H2.9424L1.7743 1.2799C1.7188 1.0689 1.6011 0.8823 1.4279 0.7944C0.995698 0.5734 0.5195 0.3975 0 0.3088V0.1322H2.5095C2.8558 0.1322 3.1156 0.3975 3.1589 0.7057L3.765 4.0149L5.322 0.1322H6.8365L4.5002 5.8675ZM7.7024 5.8675H6.2312L7.4426 0.1322H8.9138L7.7024 5.8675ZM10.8172 1.7211C10.8605 1.4122 11.1202 1.2356 11.4233 1.2356C11.8995 1.1913 12.4183 1.28 12.8512 1.5002L13.1109 0.2653C12.678 0.0886998 12.2018 0 11.7696 0C10.3417 0 9.3027 0.7944 9.3027 1.897C9.3027 2.7358 10.0387 3.1762 10.5582 3.4415C11.1202 3.706 11.3367 3.8827 11.2934 4.1472C11.2934 4.5441 10.8605 4.7207 10.4283 4.7207C9.9088 4.7207 9.3893 4.5884 8.9138 4.3674L8.654 5.603C9.1736 5.8232 9.7356 5.9119 10.2551 5.9119C11.8562 5.9555 12.8512 5.1619 12.8512 3.9706C12.8512 2.4704 10.8172 2.3825 10.8172 1.7211ZM18 5.8675L16.8318 0.1322H15.5771C15.3174 0.1322 15.0576 0.3088 14.971 0.5734L12.8079 5.8675H14.3224L14.6247 5.0295H16.4855L16.6587 5.8675H18ZM15.7936 1.6768L16.2258 3.8384H15.0143L15.7936 1.6768Z" fill="#172B85"/>
</svg>
