<svg width="18" height="6" viewBox="0 0 18 6" fill="none" xmlns="http://www.w3.org/2000/svg">
    <path d="M3.9371 1.1615L3.2688 3.4767H3.1544L2.4861 1.1615C2.3717 0.7697 2.0129 0.5 1.6028 0.5H0V5.54H1.6048V2.5613H1.7192L2.6379 5.54H3.7853L4.7021 2.5613H4.8164V5.54H6.4213V0.5H4.8184C4.4103 0.5 4.0515 0.7697 3.9371 1.1615ZM12.8228 5.54H14.4374V4.0497H16.062C16.9117 4.0497 17.6353 3.5693 17.9152 2.894H12.8228V5.54ZM9.9621 1.0316L8.8324 3.4787H8.7181V0.5H7.1133V5.54H8.4756C8.8344 5.54 9.1597 5.3313 9.3095 5.0084L10.4392 2.5632H10.5536V5.54H12.1584V0.5H10.796C10.4372 0.5 10.112 0.7087 9.9621 1.0316Z" fill="#006848"/>
    <path d="M16.2217 0.5C16.685 0.5 17.105 0.6772 17.4224 0.9686C17.7773 1.2914 18 1.7561 18 2.2738C18 2.3802 17.9882 2.4845 17.9705 2.5869H14.9895C13.9801 2.5869 13.1244 1.9254 12.8366 1.0119C12.8326 1.002 12.8307 0.9902 12.8267 0.9784C12.8188 0.9508 12.8129 0.9213 12.805 0.8937C12.7755 0.7658 12.7558 0.6358 12.7479 0.5H16.2217Z" fill="url(#paint0_linear_193:37368)"/>
    <defs>
        <linearGradient id="paint0_linear_193:37368" x1="18" y1="7.0267" x2="12.78" y2="7.0267" gradientUnits="userSpaceOnUse">
            <stop stop-color="#1E5CD8"/>
            <stop offset="1" stop-color="#02AFFF"/>
        </linearGradient>
    </defs>
</svg>
