<svg width="16" height="16" viewBox="0 0 16 16" fill="none" xmlns="http://www.w3.org/2000/svg">
    <path d="M1.84801 8.00116C1.84801 7.89806 1.851 7.79576 1.856 7.69396L0.00999451 7.60156C0.00399451 7.73416 0 7.86736 0 8.00116C0 10.2099 0.895002 12.2102 2.343 13.6582L3.65199 12.3496C2.53899 11.2352 1.84801 9.69726 1.84801 8.00116Z" fill="white"/>
    <path d="M1.84801 8.00116C1.84801 7.89806 1.851 7.79576 1.856 7.69396L0.00999451 7.60156C0.00399451 7.73416 0 7.86736 0 8.00116C0 10.2099 0.895002 12.2102 2.343 13.6582L3.65199 12.3496C2.53899 11.2352 1.84801 9.69726 1.84801 8.00116Z" fill="url(#paint0_linear_0:1)"/>
    <path d="M8.00002 1.84756C8.10302 1.84756 8.20502 1.85133 8.30702 1.85636L8.39902 0.0100498C8.26702 0.00376982 8.13402 0 8.00002 0C5.79102 0 3.79102 0.8952 2.34302 2.34321L3.65102 3.65177C4.76602 2.53733 6.30402 1.84756 8.00002 1.84756Z" fill="white"/>
    <path d="M8.00002 1.84756C8.10302 1.84756 8.20502 1.85133 8.30702 1.85636L8.39902 0.0100498C8.26702 0.00376982 8.13402 0 8.00002 0C5.79102 0 3.79102 0.8952 2.34302 2.34321L3.65102 3.65177C4.76602 2.53733 6.30402 1.84756 8.00002 1.84756Z" fill="url(#paint1_linear_0:1)"/>
    <path d="M8.00008 14.1513C7.89708 14.1513 7.79507 14.1488 7.69307 14.1438L7.60107 15.9894C7.73307 15.9957 7.86608 15.9995 8.00008 15.9995C10.2091 15.9995 12.2091 15.1043 13.6571 13.6563L12.3491 12.3477C11.2341 13.4609 9.69608 14.1513 8.00008 14.1513Z" fill="white"/>
    <path d="M8.00008 14.1513C7.89708 14.1513 7.79507 14.1488 7.69307 14.1438L7.60107 15.9894C7.73307 15.9957 7.86608 15.9995 8.00008 15.9995C10.2091 15.9995 12.2091 15.1043 13.6571 13.6563L12.3491 12.3477C11.2341 13.4609 9.69608 14.1513 8.00008 14.1513Z" fill="url(#paint2_linear_0:1)"/>
    <path d="M11.469 2.92117L13.025 1.77469C11.652 0.66464 9.90398 0 8.00098 0V1.84819C9.28698 1.84756 10.481 2.24459 11.469 2.92117Z" fill="white"/>
    <path d="M11.469 2.92117L13.025 1.77469C11.652 0.66464 9.90398 0 8.00098 0V1.84819C9.28698 1.84756 10.481 2.24459 11.469 2.92117Z" fill="url(#paint3_linear_0:1)"/>
    <path d="M15.8719 6.5665C15.9559 7.0322 15.9999 7.511 15.9999 8.0006C15.9999 10.27 15.0549 12.3191 13.5389 13.7748L13.3679 13.9341L12.1259 12.561C13.3699 11.4343 14.1519 9.8067 14.1519 8V7.918L14.1499 7.836L15.8719 6.5665ZM14.3739 3.07031C14.7539 3.56739 15.0759 4.10788 15.3319 4.68076L8.04691 10.122L5.00391 8.1883V5.8626L8.04691 7.7906L14.3739 3.07031Z" fill="white"/>
    <path d="M15.8719 6.5665C15.9559 7.0322 15.9999 7.511 15.9999 8.0006C15.9999 10.27 15.0549 12.3191 13.5389 13.7748L13.3679 13.9341L12.1259 12.561C13.3699 11.4343 14.1519 9.8067 14.1519 8V7.918L14.1499 7.836L15.8719 6.5665ZM14.3739 3.07031C14.7539 3.56739 15.0759 4.10788 15.3319 4.68076L8.04691 10.122L5.00391 8.1883V5.8626L8.04691 7.7906L14.3739 3.07031Z" fill="url(#paint4_linear_0:1)"/>
    <path d="M8.0011 14.1516C6.1951 14.1516 4.56809 13.3689 3.44109 12.125L2.06909 13.367C3.53209 14.984 5.6481 15.9998 8.0011 15.9998V14.1516Z" fill="white"/>
    <path d="M8.0011 14.1516C6.1951 14.1516 4.56809 13.3689 3.44109 12.125L2.06909 13.367C3.53209 14.984 5.6481 15.9998 8.0011 15.9998V14.1516Z" fill="url(#paint5_linear_0:1)"/>
    <path d="M3.875 3.43904L2.633 2.06641C1.016 3.53014 0 5.64587 0 7.99857H1.84801C1.84901 6.19177 2.631 4.56542 3.875 3.43904Z" fill="white"/>
    <path d="M3.875 3.43904L2.633 2.06641C1.016 3.53014 0 5.64587 0 7.99857H1.84801C1.84901 6.19177 2.631 4.56542 3.875 3.43904Z" fill="url(#paint6_linear_0:1)"/>
    <defs>
        <linearGradient id="paint0_linear_0:1" x1="10.035" y1="-0.112268" x2="-3.45301" y2="10.1001" gradientUnits="userSpaceOnUse">
            <stop stop-color="#52CF6F"/>
            <stop offset="1" stop-color="#139A9F"/>
        </linearGradient>
        <linearGradient id="paint1_linear_0:1" x1="10.035" y1="-0.11383" x2="-3.45298" y2="10.0986" gradientUnits="userSpaceOnUse">
            <stop stop-color="#52CF6F"/>
            <stop offset="1" stop-color="#139A9F"/>
        </linearGradient>
        <linearGradient id="paint2_linear_0:1" x1="10.0351" y1="-0.113975" x2="-3.45293" y2="10.0985" gradientUnits="userSpaceOnUse">
            <stop stop-color="#52CF6F"/>
            <stop offset="1" stop-color="#139A9F"/>
        </linearGradient>
        <linearGradient id="paint3_linear_0:1" x1="10.035" y1="-0.11383" x2="-3.45302" y2="10.0986" gradientUnits="userSpaceOnUse">
            <stop stop-color="#52CF6F"/>
            <stop offset="1" stop-color="#139A9F"/>
        </linearGradient>
        <linearGradient id="paint4_linear_0:1" x1="10.0349" y1="-0.114427" x2="-3.45309" y2="10.098" gradientUnits="userSpaceOnUse">
            <stop stop-color="#52CF6F"/>
            <stop offset="1" stop-color="#139A9F"/>
        </linearGradient>
        <linearGradient id="paint5_linear_0:1" x1="10.0351" y1="-0.114029" x2="-3.4529" y2="10.0984" gradientUnits="userSpaceOnUse">
            <stop stop-color="#52CF6F"/>
            <stop offset="1" stop-color="#139A9F"/>
        </linearGradient>
        <linearGradient id="paint6_linear_0:1" x1="10.035" y1="-0.114863" x2="-3.453" y2="10.0976" gradientUnits="userSpaceOnUse">
            <stop stop-color="#52CF6F"/>
            <stop offset="1" stop-color="#139A9F"/>
        </linearGradient>
    </defs>
</svg>
