<svg width="32" height="32" viewBox="0 0 32 32" fill="none" xmlns="http://www.w3.org/2000/svg">
    <path d="M16 32C24.8366 32 32 24.8366 32 16C32 7.16344 24.8366 0 16 0C7.16344 0 0 7.16344 0 16C0 24.8366 7.16344 32 16 32Z" fill="#FFF1E9"/>
    <path fill-rule="evenodd" clip-rule="evenodd" d="M5.33398 14.8483C5.33398 20.062 9.68065 24.3139 15.0606 24.3139C15.722 24.3139 16.382 24.2574 17.1406 24.1924C17.9873 24.1199 18.9553 24.037 20.1833 24.0103C22.046 24.0103 24.0633 24.6683 26.2887 26.5918C26.4953 26.7943 26.806 26.5412 26.5993 26.288C24.374 23.6054 22.3567 23.0991 20.338 22.6435C17.8553 22.0867 16.562 20.7707 15.682 19.2522C15.5273 18.9484 15.4233 18.999 15.4233 19.404C15.3713 20.0114 15.4233 20.5682 15.5273 21.125H15.2167C11.698 21.125 8.80066 18.2903 8.80066 14.8483C8.80066 11.4062 11.698 8.57162 15.2167 8.57162C18.734 8.57162 21.6327 11.4062 21.6327 14.8483C21.6327 15.0508 21.6326 15.3039 21.5806 15.557C21.0633 15.4558 20.1833 15.4558 19.5113 15.5063C19.2526 15.5063 19.2526 15.6076 19.4593 15.6582C21.5286 16.0631 22.9766 17.3286 23.3393 19.6571C23.3393 19.7583 23.3913 19.7583 23.4433 19.7076C24.2713 18.2903 24.7887 16.6199 24.7887 14.8483C24.7887 9.58398 20.442 5.33203 15.0606 5.33203C9.68065 5.33203 5.33398 9.6346 5.33398 14.8483ZM22.098 18.7459C22.4593 18.8978 22.6153 19.404 22.6153 19.6571C22.6673 20.062 22.5633 20.2646 22.4087 20.2646C22.2527 20.2646 22.046 20.1127 21.8393 19.7583C21.6313 19.404 21.5287 19.0496 21.6313 18.8472C21.7873 18.7459 21.942 18.6954 22.098 18.7459ZM19.9766 20.3151C20.1833 20.3151 20.442 20.4163 20.7006 20.6188C21.114 20.9731 21.27 21.378 21.0633 21.6818C20.9593 21.8336 20.7006 21.9348 20.494 21.9348C20.2353 21.9348 19.9767 21.8336 19.8207 21.6818C19.4073 21.3275 19.3033 20.8212 19.562 20.5176C19.614 20.4163 19.77 20.3151 19.9766 20.3151Z" fill="#F28A1A"/>
</svg>
