<svg xmlns="http://www.w3.org/2000/svg" display="none">
    <symbol id="tg" viewBox="0 0 26 22">
        <path fill-rule="evenodd" clip-rule="evenodd"
              d="M1.78736 9.47086C8.76667 6.36615 13.4206 4.31934 15.7493 3.33042C22.3979 0.506852 23.7795 0.0163687 24.68 0.000172686C24.878 -0.00338946 25.3208 0.0467251 25.6077 0.284372C25.8499 0.485037 25.9165 0.756106 25.9484 0.946358C25.9803 1.13661 26.02 1.57001 25.9884 1.90866C25.6281 5.7739 24.0692 15.1538 23.276 19.483C22.9404 21.3148 22.2796 21.929 21.6399 21.9891C20.2496 22.1197 19.1938 21.051 17.8473 20.1497C15.7401 18.7394 14.5498 17.8615 12.5044 16.4853C10.1407 14.8949 11.673 14.0208 13.0201 12.5922C13.3726 12.2184 19.4983 6.52943 19.6169 6.01335C19.6317 5.94881 19.6455 5.70822 19.5055 5.58118C19.3655 5.45414 19.1589 5.49758 19.0098 5.53213C18.7985 5.5811 15.4323 7.85279 8.91132 12.3472C7.95585 13.0171 7.09041 13.3435 6.31501 13.3264C5.46019 13.3075 3.81586 12.8329 2.59347 12.4272C1.09416 11.9296 -0.0974649 11.6665 0.00629874 10.8214C0.0603452 10.3812 0.654034 9.93102 1.78736 9.47086Z"/>
    </symbol>

    <symbol id="phone" viewBox="0 0 32 32">
        <path d="M14.9734 7.80394L15.6657 9.0444C16.2904 10.1638 16.0397 11.6324 15.0557 12.6163C15.0557 12.6163 15.0557 12.6163 15.0557 12.6163C15.0556 12.6165 13.8623 13.81 16.0261 15.9739C18.1894 18.1371 19.3829 16.9451 19.3837 16.9443C19.3837 16.9443 19.3837 16.9443 19.3837 16.9443C20.3677 15.9604 21.8362 15.7096 22.9556 16.3343L24.1961 17.0266C25.8865 17.97 26.0861 20.3405 24.6003 21.8264C23.7075 22.7192 22.6138 23.4139 21.4047 23.4597C19.3694 23.5369 15.9128 23.0218 12.4455 19.5545C8.97826 16.0872 8.46315 12.6307 8.54031 10.5953C8.58615 9.38626 9.28085 8.29254 10.1737 7.39974C11.6595 5.91393 14.03 6.11356 14.9734 7.80394Z"
              stroke-linecap="round"/>
    </symbol>


    <symbol id="telegram" viewBox="0 0 15 12">
        <path fill-rule="evenodd" clip-rule="evenodd"
              d="M0.995424 5.16592C4.88236 3.47245 7.47426 2.356 8.77113 1.81659C12.4739 0.276465 13.2433 0.00892841 13.7448 9.41924e-05C13.8551 -0.00184879 14.1018 0.0254864 14.2615 0.155112C14.3964 0.264566 14.4335 0.412421 14.4513 0.516195C14.469 0.619969 14.4911 0.856369 14.4736 1.04108C14.2729 3.1494 13.4047 8.26573 12.963 10.6271C12.7761 11.6263 12.408 11.9613 12.0518 11.9941C11.2775 12.0653 10.6895 11.4823 9.93956 10.9908C8.76605 10.2215 8.10309 9.74265 6.964 8.992C5.64758 8.1245 6.50096 7.64771 7.25119 6.86849C7.44752 6.66457 10.8591 3.56151 10.9251 3.28001C10.9334 3.2448 10.941 3.11357 10.8631 3.04428C10.7851 2.97498 10.67 2.99868 10.587 3.01753C10.4693 3.04424 8.59461 4.28334 4.96292 6.73483C4.4308 7.10023 3.94881 7.27826 3.51697 7.26893C3.04091 7.25865 2.12514 6.99976 1.44436 6.77846C0.609362 6.50704 -0.0542804 6.36353 0.00350792 5.90257C0.0336076 5.66247 0.364246 5.41692 0.995424 5.16592Z"/>
    </symbol>

    <symbol id="search" viewBox="0 0 16 17">
        <g>
            <path d="M15.5 7.36897C15.5 10.6325 12.8196 13.2887 9.5 13.2887C6.18042 13.2887 3.5 10.6325 3.5 7.36897C3.5 4.10542 6.18042 1.44922 9.5 1.44922C12.8196 1.44922 15.5 4.10542 15.5 7.36897Z"/>
            <path d="M3.5 12.3086L4.5 13.2962L1 16.753L0 15.7654L3.5 12.3086Z" fill="#202020"/>
        </g>
    </symbol>

    <symbol id="user" viewBox="0 0 17 17">
        <g>
            <path d="M16.5 17.2641C16.5 21.4673 13.1363 24.8641 9 24.8641C4.8637 24.8641 1.5 21.4673 1.5 17.2641C1.5 13.0608 4.8637 9.66406 9 9.66406C13.1363 9.66406 16.5 13.0608 16.5 17.2641Z"/>
            <path d="M13.5 5.11328C13.5 7.63895 11.4794 9.67578 9 9.67578C6.52056 9.67578 4.5 7.63895 4.5 5.11328C4.5 2.58761 6.52056 0.550781 9 0.550781C11.4794 0.550781 13.5 2.58761 13.5 5.11328Z"/>
        </g>
    </symbol>

    <symbol id="basket" viewBox="0 0 16 20">
        <path fill-rule="evenodd" clip-rule="evenodd"
              d="M15 4.57969H1V18.7547H15V4.57969ZM0 3.56719V19.7672H16V3.56719H0Z"/>
        <path fill-rule="evenodd" clip-rule="evenodd"
              d="M3.5 0.0234375H12.5V8.62969H11.5V1.03594H4.5V8.62969H3.5V0.0234375Z"/>
    </symbol>


    <symbol id="burger" viewBox="0 0 32 32">
        <path d="M4 16H28M4 8H28M4 24H28" stroke-width="1.5" stroke-linecap="round"
              stroke-linejoin="round"/>
    </symbol>

    <symbol id="arrow-left" viewBox="0 0 12 12">
        <path d="M11 6.00009L0.999999 6.00009M0.999999 6.00009L6 11M0.999999 6.00009L6 1"
              stroke-width="1.5" stroke-linecap="round" stroke-linejoin="round"/>
    </symbol>

    <symbol id="arrow-right" viewBox="0 0 12 12">
        <path d="M1 6.00009L11 6.00009M11 6.00009L6 11M11 6.00009L6 1" stroke-width="1.5"
              stroke-linecap="round" stroke-linejoin="round"/>
    </symbol>

    <symbol id="arrow-top" viewBox="0 0 8 5">
        <path d="M1 4L4 1L7 4" stroke-linecap="round" stroke-linejoin="round"/>
    </symbol>


    <symbol id="star" viewBox="0 0 12 11">
        <path d="M6 0L7.97496 3.2817L11.7063 4.1459L9.19555 7.0383L9.52671 10.8541L6 9.36L2.47329 10.8541L2.80445 7.0383L0.293661 4.1459L4.02504 3.2817L6 0Z"/>
    </symbol>

    <symbol id="minus" viewBox="0 0 14 2">
        <path d="M12.6569 0.656854H1.34315" stroke-linecap="round" stroke-linejoin="round"/>
    </symbol>


    <symbol id="plus" viewBox="0 0 14 13">
        <path d="M12.6569 6.65685H1.34315M7 1V12.3137" stroke-linecap="round" stroke-linejoin="round"/>
    </symbol>

    <symbol id="btn-arrow-right" viewBox="0 0 6 10">
        <path d="M1 9L5 5L1 1" stroke-linecap="round" stroke-linejoin="round"/>
    </symbol>

    <symbol id="btn-arrow-left" viewBox="0 0 8 14">
        <path d="M7 13L1 7L7 1" stroke-width="1.5" stroke-linecap="round" stroke-linejoin="round"/>
    </symbol>


    <symbol id="close" viewBox="0 0 28 28">
        <path d="M27 1L1 27M1 1L27 27" stroke-width="1.5" stroke-linecap="round" stroke-linejoin="round"/>
    </symbol>

    <symbol id="btn-search" viewBox="0 0 27 12">
        <path d="M1 6.00009L26 6.00009M26 6.00009L21 11M26 6.00009L21 1" stroke-width="1.5"
              stroke-linecap="round" stroke-linejoin="round"/>
    </symbol>

    <symbol id="twitter" viewBox="0 0 12 10">
        <path d="M11.977 1.28259C11.5345 1.47709 11.062 1.60959 10.5645 1.67009C11.0715 1.36459 11.4615 0.883094 11.646 0.308594C11.1705 0.586094 10.6435 0.788094 10.0825 0.900594C9.6345 0.421094 8.996 0.121094 8.287 0.121094C6.9285 0.121094 5.827 1.22259 5.827 2.57959C5.827 2.77459 5.8495 2.96209 5.8905 3.14159C3.8455 3.04509 2.033 2.06309 0.82 0.578594C0.6065 0.939594 0.487 1.35909 0.487 1.81609C0.487 2.67109 0.922 3.42259 1.581 3.86409C1.1775 3.85109 0.798 3.74009 0.467 3.55609V3.58659C0.467 4.77909 1.3135 5.77359 2.44 6.00009C2.2335 6.05559 2.0155 6.08559 1.792 6.08559C1.635 6.08559 1.4845 6.07059 1.334 6.04259C1.6495 7.01909 2.5565 7.73109 3.636 7.75109C2.796 8.41059 1.7315 8.80359 0.585 8.80359C0.39 8.80359 0.1955 8.79209 0 8.77009C1.0945 9.4671 2.384 9.87459 3.7785 9.87459C8.3055 9.87459 10.778 6.12659 10.778 2.88159C10.778 2.77709 10.778 2.67159 10.7705 2.56659C11.251 2.22209 11.6705 1.78659 12.0005 1.29259L11.977 1.28259Z"/>
    </symbol>

    <symbol id="mail" viewBox="0 0 12 10">
        <path d="M1.15176 3.1914C1.30356 3.29851 1.76114 3.61665 2.52452 4.14565C3.28792 4.67464 3.87273 5.08196 4.27899 5.36761C4.32363 5.39892 4.41845 5.46699 4.56352 5.5719C4.70861 5.67688 4.82917 5.76172 4.9251 5.82643C5.0211 5.89112 5.13715 5.96369 5.27338 6.04402C5.40955 6.12428 5.53792 6.18465 5.65845 6.22462C5.77901 6.26491 5.89061 6.28487 5.99327 6.28487H6.00676C6.10942 6.28487 6.22106 6.26489 6.34162 6.22462C6.4621 6.18465 6.59059 6.12421 6.72665 6.04402C6.86278 5.96359 6.97883 5.89109 7.07483 5.82643C7.17083 5.76172 7.29129 5.67688 7.43643 5.5719C7.58148 5.46689 7.67642 5.39892 7.72105 5.36761C8.1317 5.08196 9.17644 4.35648 10.8549 3.19126C11.1808 2.96368 11.4531 2.68907 11.6718 2.36762C11.8907 2.04632 12 1.70925 12 1.35661C12 1.06193 11.8939 0.809672 11.6818 0.59987C11.4698 0.390022 11.2186 0.285156 10.9285 0.285156H1.07138C0.727657 0.285156 0.463135 0.40121 0.277867 0.633317C0.0926224 0.865471 0 1.15565 0 1.50384C0 1.78508 0.122808 2.08985 0.368308 2.41796C0.613784 2.74609 0.875022 3.00392 1.15176 3.1914V3.1914Z"/>
        <path d="M11.3303 3.90678C9.86613 4.89777 8.75438 5.66792 7.99556 6.21709C7.7411 6.40452 7.53467 6.55083 7.37614 6.65567C7.21762 6.76058 7.00678 6.86772 6.74334 6.97704C6.47999 7.08653 6.23456 7.14111 6.00684 7.14111H5.99328C5.76561 7.14111 5.52004 7.08653 5.25669 6.97704C4.99334 6.86772 4.78237 6.76058 4.62389 6.65567C4.46545 6.55083 4.25896 6.40452 4.00452 6.21709C3.40181 5.77516 2.29245 5.00495 0.676407 3.90678C0.421878 3.73725 0.196432 3.54293 0 3.32422V8.64103C0 8.93586 0.104866 9.18797 0.314714 9.3978C0.524515 9.60769 0.776793 9.7126 1.07145 9.7126H10.9286C11.2232 9.7126 11.4755 9.60769 11.6853 9.3978C11.8952 9.1879 12 8.93588 12 8.64103V3.32422C11.808 3.53841 11.5849 3.73273 11.3303 3.90678Z"/>
    </symbol>

    <symbol id="fb" viewBox="0 0 6 12">
        <path d="M1.5 4H0V6H1.5V12H4V6H5.821L6 4H4V3.1665C4 2.689 4.096 2.5 4.5575 2.5H6V0H4.096C2.298 0 1.5 0.7915 1.5 2.3075V4Z"/>
    </symbol>

    <symbol id="basket-add" viewBox="0 0 16 20">
        <path fill-rule="evenodd" clip-rule="evenodd" d="M15 4.5H1V18.5H15V4.5ZM0 3.5V19.5H16V3.5H0Z"/>
        <path fill-rule="evenodd" clip-rule="evenodd" d="M3.5 0H12.5V8.5H11.5V1H4.5V8.5H3.5V0Z"/>
    </symbol>

    <symbol id="play" viewBox="0 0 12 14">
        <path d="M12 7L-6.52533e-07 13.9282L-4.68497e-08 0.0717964L12 7Z"/>
    </symbol>

    <symbol id="panel-icon" viewBox="0 0 18 17">
        <path d="M8.1 16.78V0.219971H9.9V16.78H8.1ZM0.5 9.37997V7.65997H17.5V9.37997H0.5Z"/>
    </symbol>

    <symbol id="link" viewBox="0 0 24 24">
        <path d="M11.9996 14.3999L11.9996 3.9999M11.9996 3.9999L14.3996 6.7999M11.9996 3.9999L9.59961 6.7999"
              stroke-linecap="round" stroke-linejoin="round"/>
        <path d="M9.6 9.6001H4V20.0001H20V9.6001H14.4" stroke-linecap="square"/>
    </symbol>

    <symbol id="copy" viewBox="0 0 24 24">
        <path d="M7.2002 11.1999C7.2002 8.93716 7.2002 7.80579 7.90314 7.10285C8.60608 6.3999 9.73745 6.3999 12.0002 6.3999H14.4002C16.6629 6.3999 17.7943 6.3999 18.4973 7.10285C19.2002 7.80579 19.2002 8.93716 19.2002 11.1999V15.1999C19.2002 17.4626 19.2002 18.594 18.4973 19.297C17.7943 19.9999 16.6629 19.9999 14.4002 19.9999H12.0002C9.73745 19.9999 8.60608 19.9999 7.90314 19.297C7.2002 18.594 7.2002 17.4626 7.2002 15.1999V11.1999Z"/>
        <path d="M7.1998 17.6C5.87432 17.6 4.7998 16.5255 4.7998 15.2V10.4C4.7998 7.38301 4.7998 5.87452 5.73706 4.93726C6.67432 4 8.18282 4 11.1998 4H14.3998C15.7253 4 16.7998 5.07452 16.7998 6.4"/>
    </symbol>

    <symbol id="dropdown-arrow" viewBox="0 0 16 16">
        <path d="M4.26673 9.59998L8.00006 6.39998L11.7334 9.59998" stroke-width="0.8"
              stroke-linecap="round" stroke-linejoin="round"/>
    </symbol>

    <symbol id="repair" viewBox="0 0 25 24">
        <path d="M17.5908 8.84016L17.0251 8.27447C14.5257 5.77512 10.4735 5.77512 7.97413 8.27447C5.47477 10.7738 5.47477 14.8261 7.97413 17.3254C10.4735 19.8248 14.5257 19.8248 17.0251 17.3254C18.4786 15.872 19.0868 13.8934 18.8498 12.0004M17.5908 8.84016H14.1967M17.5908 8.84016V5.44604"
              stroke-linecap="round"/>
    </symbol>

</svg>