<svg xmlns="http://www.w3.org/2000/svg" display="none">

    <symbol id="telegram" viewBox="0 0 15 12">
        <path fill-rule="evenodd" clip-rule="evenodd"
              d="M0.995424 5.16592C4.88236 3.47245 7.47426 2.356 8.77113 1.81659C12.4739 0.276465 13.2433 0.00892841 13.7448 9.41924e-05C13.8551 -0.00184879 14.1018 0.0254864 14.2615 0.155112C14.3964 0.264566 14.4335 0.412421 14.4513 0.516195C14.469 0.619969 14.4911 0.856369 14.4736 1.04108C14.2729 3.1494 13.4047 8.26573 12.963 10.6271C12.7761 11.6263 12.408 11.9613 12.0518 11.9941C11.2775 12.0653 10.6895 11.4823 9.93956 10.9908C8.76605 10.2215 8.10309 9.74265 6.964 8.992C5.64758 8.1245 6.50096 7.64771 7.25119 6.86849C7.44752 6.66457 10.8591 3.56151 10.9251 3.28001C10.9334 3.2448 10.941 3.11357 10.8631 3.04428C10.7851 2.97498 10.67 2.99868 10.587 3.01753C10.4693 3.04424 8.59461 4.28334 4.96292 6.73483C4.4308 7.10023 3.94881 7.27826 3.51697 7.26893C3.04091 7.25865 2.12514 6.99976 1.44436 6.77846C0.609362 6.50704 -0.0542804 6.36353 0.00350792 5.90257C0.0336076 5.66247 0.364246 5.41692 0.995424 5.16592Z"/>
    </symbol>

    <symbol id="search" viewBox="0 0 16 17">
        <g>
            <path d="M15.5 7.36897C15.5 10.6325 12.8196 13.2887 9.5 13.2887C6.18042 13.2887 3.5 10.6325 3.5 7.36897C3.5 4.10542 6.18042 1.44922 9.5 1.44922C12.8196 1.44922 15.5 4.10542 15.5 7.36897Z"/>
            <path d="M3.5 12.3086L4.5 13.2962L1 16.753L0 15.7654L3.5 12.3086Z" fill="#202020"/>
        </g>
    </symbol>

    <symbol id="user" viewBox="0 0 17 17">
        <g>
            <path d="M16.5 17.2641C16.5 21.4673 13.1363 24.8641 9 24.8641C4.8637 24.8641 1.5 21.4673 1.5 17.2641C1.5 13.0608 4.8637 9.66406 9 9.66406C13.1363 9.66406 16.5 13.0608 16.5 17.2641Z"/>
            <path d="M13.5 5.11328C13.5 7.63895 11.4794 9.67578 9 9.67578C6.52056 9.67578 4.5 7.63895 4.5 5.11328C4.5 2.58761 6.52056 0.550781 9 0.550781C11.4794 0.550781 13.5 2.58761 13.5 5.11328Z"/>
        </g>
    </symbol>

    <symbol id="basket" viewBox="0 0 16 20">
        <path fill-rule="evenodd" clip-rule="evenodd"
              d="M15 4.57969H1V18.7547H15V4.57969ZM0 3.56719V19.7672H16V3.56719H0Z"/>
        <path fill-rule="evenodd" clip-rule="evenodd"
              d="M3.5 0.0234375H12.5V8.62969H11.5V1.03594H4.5V8.62969H3.5V0.0234375Z"/>
    </symbol>


    <symbol id="burger" viewBox="0 0 32 32">
        <path d="M4 16H28M4 8H28M4 24H28" stroke-width="1.5" stroke-linecap="round"
              stroke-linejoin="round"/>
    </symbol>

    <symbol id="arrow-left" viewBox="0 0 12 12">
        <path d="M11 6.00009L0.999999 6.00009M0.999999 6.00009L6 11M0.999999 6.00009L6 1"
              stroke-width="1.5" stroke-linecap="round" stroke-linejoin="round"/>
    </symbol>

    <symbol id="arrow-right" viewBox="0 0 12 12">
        <path d="M1 6.00009L11 6.00009M11 6.00009L6 11M11 6.00009L6 1" stroke-width="1.5"
              stroke-linecap="round" stroke-linejoin="round"/>
    </symbol>

    <symbol id="star" viewBox="0 0 12 11">
        <path d="M6 0L7.97496 3.2817L11.7063 4.1459L9.19555 7.0383L9.52671 10.8541L6 9.36L2.47329 10.8541L2.80445 7.0383L0.293661 4.1459L4.02504 3.2817L6 0Z"/>
    </symbol>

    <symbol id="minus" viewBox="0 0 14 2">
        <path d="M12.6569 0.656854H1.34315" stroke-linecap="round" stroke-linejoin="round"/>
    </symbol>


    <symbol id="plus" viewBox="0 0 14 13">
        <path d="M12.6569 6.65685H1.34315M7 1V12.3137" stroke-linecap="round" stroke-linejoin="round"/>
    </symbol>

    <symbol id="btn-arrow-right" viewBox="0 0 12 12">
        <path d="M1 6.00009L11 6.00009M11 6.00009L6 11M11 6.00009L6 1" stroke-width="1.5"
              stroke-linecap="round" stroke-linejoin="round"/>
    </symbol>

    <symbol id="close" viewBox="0 0 28 28">
        <path d="M27 1L1 27M1 1L27 27" stroke-width="1.5" stroke-linecap="round" stroke-linejoin="round"/>
    </symbol>


</svg>