<svg width="41" height="45" viewBox="0 0 41 45" fill="none" xmlns="http://www.w3.org/2000/svg">
    <path d="M18.2184 22.8956C17.6455 22.8956 17.1794 22.1266 17.1794 21.1819C17.1794 20.2372 17.6455 19.4688 18.2184 19.4688C18.7914 19.4688 19.2574 20.2372 19.2574 21.1819C19.2574 22.1266 18.7914 22.8956 18.2184 22.8956ZM6.73398 22.8956C6.16103 22.8956 5.695 22.1266 5.695 21.1819C5.695 20.2372 6.16103 19.4688 6.73398 19.4688C7.30691 19.4688 7.77296 20.2372 7.77296 21.1819C7.77296 22.1266 7.30691 22.8956 6.73398 22.8956ZM18.591 12.5756L20.6676 6.6455C20.7867 6.30465 20.7159 5.86928 20.5095 5.67244C20.3031 5.47616 20.0387 5.59293 19.9193 5.93322L17.8168 11.9384C16.2089 10.7285 14.4031 10.0546 12.4762 10.0546C10.5493 10.0546 8.74348 10.7285 7.13561 11.9384L5.03303 5.93322C4.91366 5.59293 4.64928 5.47616 4.44289 5.67244C4.23652 5.86928 4.16536 6.30465 4.28474 6.6455L6.36134 12.5756C2.79556 15.7734 0.356776 21.7257 0 28.7579H24.9524C24.5953 21.7257 22.1565 15.7734 18.591 12.5756Z" fill="#3DDB85"/>
    <path d="M35.7095 13.6713H26.0068C23.6882 13.6713 21.8086 16.8048 21.8086 20.6702V36.8455C21.8086 40.7109 23.6882 43.8445 26.0068 43.8445H35.7095C38.0281 43.8445 39.9077 40.7109 39.9077 36.8455V20.6702C39.9077 16.8048 38.0281 13.6713 35.7095 13.6713Z" fill="url(#paint0_linear_922_2244)" stroke="#D9D9D9" stroke-width="0.5"/>
    <path fill-rule="evenodd" clip-rule="evenodd" d="M24.7833 34.9076H24.3575V25.4234H24.7833V34.9076ZM24.5643 23.0986C24.3848 23.0986 24.2363 22.8611 24.2363 22.5618C24.2363 22.2537 24.384 22.015 24.5643 22.015C24.7492 22.015 24.8961 22.2524 24.8961 22.5618C24.8961 22.8611 24.7492 23.0986 24.5643 23.0986Z" fill="url(#paint1_linear_922_2244)"/>
    <path fill-rule="evenodd" clip-rule="evenodd" d="M28.9182 35.0927C26.8366 35.0927 25.5215 32.5656 25.5215 28.5485C25.5215 24.5515 26.8426 22.0145 28.9182 22.0145C30.9939 22.0145 32.3143 24.5517 32.3143 28.5485C32.3143 32.5658 30.9992 35.0927 28.9182 35.0927ZM28.9182 22.6673C27.1063 22.6673 25.9495 24.948 25.9495 28.5484C25.9495 32.1514 27.1116 34.441 28.9182 34.441C30.7302 34.441 31.887 32.1514 31.887 28.5484C31.887 24.9467 30.7302 22.6673 28.9182 22.6673Z" fill="url(#paint2_linear_922_2244)"/>
    <path fill-rule="evenodd" clip-rule="evenodd" d="M35.3444 35.0927C33.7817 35.0927 32.6613 33.6214 32.5977 31.5175H33.0151C33.0787 33.2426 34.0506 34.4499 35.3762 34.4499C36.6701 34.4499 37.5731 33.2249 37.5731 31.5705C37.5731 30.2394 37.0345 29.4741 35.7565 28.9374L34.8535 28.5673C33.4438 27.9675 32.8037 27.0165 32.8037 25.424C32.8037 23.4426 33.9134 22.0156 35.3028 22.0156C36.739 22.0156 37.8116 23.4249 37.8594 25.2915H37.442C37.3837 23.7685 36.4913 22.6584 35.2921 22.6584C34.1453 22.6584 33.2316 23.8038 33.2316 25.4063C33.2316 26.6755 33.7914 27.4055 35.0163 27.9157L35.867 28.2768C37.3404 28.8843 38.001 29.8276 38.001 31.5173C38.001 33.6212 36.9396 35.0925 35.3443 35.0925L35.3444 35.0927Z" fill="url(#paint3_linear_922_2244)"/>
    <rect width="3.30531" height="42.4262" transform="matrix(0.808225 0.588874 -0.253589 0.967312 25.957 0.940979)" fill="#333333"/>
    <defs>
        <linearGradient id="paint0_linear_922_2244" x1="926.765" y1="1522.33" x2="926.765" y2="3030.99" gradientUnits="userSpaceOnUse">
            <stop stop-color="white"/>
            <stop offset="1" stop-color="#E9E5E5"/>
        </linearGradient>
        <linearGradient id="paint1_linear_922_2244" x1="57.2262" y1="22.015" x2="57.2262" y2="1144.34" gradientUnits="userSpaceOnUse">
            <stop stop-color="#0339F1"/>
            <stop offset="1" stop-color="#01ADE5"/>
        </linearGradient>
        <linearGradient id="paint2_linear_922_2244" x1="120.695" y1="146.711" x2="796.713" y2="534.442" gradientUnits="userSpaceOnUse">
            <stop stop-color="#0756EE"/>
            <stop offset="0.37448" stop-color="#00A3F5"/>
            <stop offset="0.71708" stop-color="#18B5B6"/>
            <stop offset="1" stop-color="#80DF43"/>
        </linearGradient>
        <linearGradient id="paint3_linear_922_2244" x1="102.933" y1="62.1989" x2="877.604" y2="443.452" gradientUnits="userSpaceOnUse">
            <stop stop-color="#20BBA6"/>
            <stop offset="0.4988" stop-color="#9BEC23"/>
            <stop offset="1" stop-color="#D9EF35"/>
        </linearGradient>
    </defs>
</svg>
