<svg width="32" height="32" viewBox="0 0 32 32" fill="none" xmlns="http://www.w3.org/2000/svg">
    <path d="M16 32C24.8366 32 32 24.8366 32 16C32 7.16344 24.8366 0 16 0C7.16344 0 0 7.16344 0 16C0 24.8366 7.16344 32 16 32Z" fill="#EFF2FF"/>
    <path fill-rule="evenodd" clip-rule="evenodd" d="M10.0003 19.8233H7.9232L6.36573 13.7065C6.29173 13.4252 6.1348 13.1764 5.90386 13.0592C5.3276 12.7645 4.69267 12.53 4 12.4117V12.1763H7.346C7.80773 12.1763 8.15414 12.53 8.21187 12.9409L9.02 17.3532L11.096 12.1763H13.1153L10.0003 19.8233ZM14.2699 19.8233H12.3083L13.9235 12.1763H15.8851L14.2699 19.8233ZM18.4229 14.2948C18.4807 13.8829 18.8269 13.6475 19.2311 13.6475C19.866 13.5884 20.5577 13.7067 21.1349 14.0003L21.4812 12.3537C20.904 12.1183 20.2691 12 19.6928 12C17.7889 12 16.4036 13.0592 16.4036 14.5293C16.4036 15.6477 17.3849 16.2349 18.0776 16.5887C18.8269 16.9413 19.1156 17.1769 19.0579 17.5296C19.0579 18.0588 18.4807 18.2943 17.9044 18.2943C17.2117 18.2943 16.5191 18.1179 15.8851 17.8232L15.5387 19.4707C16.2315 19.7643 16.9808 19.8825 17.6735 19.8825C19.8083 19.9407 21.1349 18.8825 21.1349 17.2941C21.1349 15.2939 18.4229 15.1767 18.4229 14.2948ZM28 19.8233L26.4424 12.1763H24.7695C24.4232 12.1763 24.0768 12.4117 23.9613 12.7645L21.0772 19.8233H23.0965L23.4996 18.706H25.9807L26.2116 19.8233H28ZM25.0581 14.2357L25.6344 17.1179H24.0191L25.0581 14.2357Z" fill="#172B85"/>
</svg>
