<svg width="32" height="32" viewBox="0 0 32 32" fill="none" xmlns="http://www.w3.org/2000/svg">
    <path d="M16 32C24.8366 32 32 24.8366 32 16C32 7.16344 24.8366 0 16 0C7.16344 0 0 7.16344 0 16C0 24.8366 7.16344 32 16 32Z" fill="#EFF9FF"/>
    <path fill-rule="evenodd" clip-rule="evenodd" d="M15.9607 5.33203C17.6287 5.33203 19.21 5.71026 20.6167 6.38175C20.838 6.48382 21.058 6.59611 21.2793 6.7201L20.3007 7.57236L18.8313 6.09307L16.3513 8.24678L14.8766 6.68148L10.2567 10.7359L13.2193 13.9139L12.054 14.9106L14.9727 18.0934L13.8153 19.0878L17.9847 23.6054L20.4593 21.3874L22.5993 23.7642C22.174 24.0863 21.71 24.3894 21.1993 24.6695C19.6527 25.5284 17.8633 26.0202 15.9607 26.0202C10.1073 26.0202 5.33398 21.373 5.33398 15.6764C5.33398 9.97863 10.1073 5.33203 15.9607 5.33203ZM14.0233 15.0223L16.5513 12.8072L18.826 15.2676L16.2993 17.4819L14.0233 15.0223ZM18.3487 17.0582L15.8207 19.2726L18.0967 21.733L20.6233 19.5179L18.3487 17.0582ZM12.2153 10.8219L14.7433 8.60742L17.018 11.0671L14.49 13.2816L12.2153 10.8219ZM18.7487 7.96912L16.8527 9.6298L18.5593 11.4752L20.454 9.8139L18.7487 7.96912ZM20.2206 17.2379L22.1167 15.5767L23.822 17.4219L21.9273 19.0827L20.2206 17.2379ZM23.782 19.3027L21.8873 20.9643L23.594 22.8084L25.4886 21.1475L23.782 19.3027ZM22.6513 12.4239L23.914 11.3166L25.0513 12.5464L23.7887 13.6536L22.6513 12.4239ZM22.3007 7.66248L21.0366 8.7696L22.174 9.99946L23.438 8.89234L22.3007 7.66248ZM24.266 16.078L25.53 14.9707L26.6673 16.2003L25.4033 17.3076L24.266 16.078ZM20.4953 11.6784L18.5993 13.3399L20.306 15.184L22.2006 13.5232L20.4953 11.6784Z" fill="#0068A3"/>
</svg>
