<svg width="25" height="24" viewBox="0 0 25 24" fill="none" xmlns="http://www.w3.org/2000/svg">
<g clip-path="url(#clip0_2986_6742)">
<path d="M19.6 10.04C18.92 6.59 15.89 4 12.25 4C9.36 4 6.85 5.64 5.6 8.04C2.59 8.36 0.25 10.91 0.25 14C0.25 17.31 2.94 20 6.25 20H19.25C22.01 20 24.25 17.76 24.25 15C24.25 12.36 22.2 10.22 19.6 10.04ZM19.25 18H6.25C4.04 18 2.25 16.21 2.25 14C2.25 11.95 3.78 10.24 5.81 10.03L6.88 9.92L7.38 8.97C8.33 7.14 10.19 6 12.25 6C14.87 6 17.13 7.86 17.64 10.43L17.94 11.93L19.47 12.04C21.03 12.14 22.25 13.45 22.25 15C22.25 16.65 20.9 18 19.25 18ZM8.25 13H10.8V16H13.7V13H16.25L12.25 9L8.25 13Z" fill="#DEDEDE"/>
</g>
<defs>
<clipPath id="clip0_2986_6742">
<rect width="24" height="24" fill="white" transform="translate(0.25)"/>
</clipPath>
</defs>
</svg>
