<svg width="552" height="64" viewBox="0 0 552 64" fill="none" xmlns="http://www.w3.org/2000/svg">
<g clip-path="url(#clip0_910_12944)">
<path d="M382 34.8403L388.476 30.5L395 36.5L382 34.8403Z" fill="#65A1EF"/>
<path d="M359.243 36.5L353 41.5H360L359.243 36.5Z" fill="#F6C52F"/>
<path d="M449.851 41.6041C449.344 41.4171 448.838 41.2344 448.331 41.0518C448.214 41.0117 447.792 40.8202 447.695 40.8291C445.948 40.9672 444.104 40.985 442.188 40.7712C441.474 40.691 440.747 40.5797 440.026 40.4238C437.442 38.9183 436.623 36.963 436.143 35.2214C435.63 33.3775 435.396 31.4756 433.584 29.6316C432.812 28.8432 431.76 28.1305 430.435 27.5871C428.643 26.8522 426.604 26.0416 424.656 25.5294C421.091 24.594 417.695 25.1552 415.039 25.8723C412.403 26.585 409.864 27.5337 406.558 27.5159C405.695 27.6272 404.779 27.6094 404.071 27.3555C404.013 27.3422 403.961 27.3244 403.909 27.3021C403.838 27.2932 403.773 27.2843 403.701 27.2709C402.682 26.5939 402.084 25.8011 401.675 25.0261C400.812 23.378 400.708 21.6231 398.734 20.0464C397.435 19.0086 395.662 18.3538 393.844 17.6857C391.844 16.9508 389.877 16.1758 387.708 15.7972C383.617 15.089 379.968 15.7527 377 16.6747C377.117 16.639 378.929 17.3918 379.143 17.4719C379.383 17.561 381.11 18.3048 381.299 18.2469C383.916 17.4363 386.987 16.8305 390.519 17.1691C391.344 17.2492 392.182 17.3828 393.006 17.5699C393.032 17.5744 393.052 17.5788 393.078 17.5877C394.273 18.2469 395.149 19.0175 395.714 19.8415C396.844 21.4984 396.792 23.1999 398.357 24.8345C399.169 25.6763 400.331 26.291 401.747 26.8166C403.565 27.4936 405.494 28.331 407.468 28.7408C415.325 30.3754 419.156 26.0282 426.532 26.6874C426.974 26.7275 427.396 26.7943 427.818 26.87C427.87 26.9012 427.922 26.9369 427.974 26.968C429.175 27.7698 429.955 28.7096 430.487 29.6271C431.571 31.5023 431.578 33.3151 432.383 35.1769C432.805 36.1523 433.455 37.159 434.578 38.0631C435.916 39.141 437.727 39.7869 439.617 40.4772C441.662 41.2255 443.565 41.9382 445.786 42.25C447.948 42.5529 450.039 42.5528 452 42.397C451.721 42.4192 450.175 41.7199 449.857 41.5997L449.851 41.6041Z" fill="#1FC1B9"/>
<path d="M361 -0.707924L366.978 -6.5L373 1.5L361 -0.707924Z" fill="#65A1EF"/>
<path d="M413 0.5L415.073 -6.5L432 -0.452803L413 0.5Z" fill="#F6C52F"/>
<path d="M344 17.5L351 17.548L347.775 22.5L344 17.5Z" fill="#BD10A6"/>
<path d="M171.995 30.6506L178.95 29.2844L178.296 37.6926L171.995 30.6506Z" fill="#F6C52F"/>
<path d="M194.33 24.094L203.326 24.0424L199.77 29.8628L194.33 24.094Z" fill="#65A1EF"/>
<path d="M185.67 -0.686493L169.012 0.19672L174.031 -10.9631L185.67 -0.686493Z" fill="#4344AF"/>
<path d="M143.869 23.8572L149.04 21.7242L150.103 26.6214L143.869 23.8572Z" fill="#1FC1B9"/>
<path d="M141.353 4.47734L138.906 1.44922L138.097 4.09928L141.353 4.47734Z" fill="#BD10A6"/>
<path d="M116.977 44.4245C117.331 44.3767 117.681 44.3257 118.022 44.2742C119.351 44.0733 120.535 43.5844 121.521 42.9388C123.569 41.5973 124.315 39.8668 125.38 38.1507C125.928 37.2671 126.626 36.3841 127.777 35.794C127.991 35.6815 128.223 35.5844 128.46 35.4991C129.009 35.5458 129.55 35.6258 130.088 35.7421C133.435 36.4696 136.459 38.11 139.032 39.6776C139.193 39.775 140.442 39.5423 140.674 39.5187C141.059 39.479 141.449 39.4369 141.838 39.3947C141.906 39.3889 142.281 39.3146 142.318 39.3345C139.97 37.9004 137.306 36.4891 134.363 35.6474C133.092 35.2863 131.717 35.0437 130.314 35.126C130.009 35.1438 129.701 35.1727 129.392 35.2016C129.517 35.0622 127.248 35.3288 127.341 35.4179C126.77 35.4766 126.193 35.5432 125.649 35.6913C123.067 36.3925 122.191 38.3295 121.286 39.9317C120.336 41.612 118.886 43.2889 116.464 44.172C116.334 44.2208 116.205 44.264 116.068 44.3066C115.718 44.2786 115.377 44.2315 115.032 44.1616C113.773 43.8974 112.662 43.3884 111.681 42.8109C109.674 41.6353 108.177 40.1229 106.126 38.9804C105.117 38.4176 103.978 37.9233 102.696 37.691C101.24 37.4222 99.7933 37.6306 98.325 37.7865C97.0427 37.9235 95.8406 38.0528 94.7127 38.532C93.6488 38.9825 92.762 39.6107 91.9473 40.2503C89.9051 41.8544 88.1382 43.4862 85.2156 44.3912C84.6315 44.57 84.029 44.7191 83.4208 44.8368C83.2464 44.8398 83.0721 44.8427 82.899 44.8401C81.2989 44.8192 79.7438 44.5876 78.2894 44.1554C78.2198 44.1329 77.8302 44.1948 77.8046 44.1984C77.4164 44.2349 77.0316 44.2746 76.6421 44.3168C76.2573 44.3564 75.8679 44.3986 75.4784 44.4407C75.3808 44.4526 75.0807 44.5216 74.9982 44.5009C77.3777 45.2101 79.7622 45.2375 82.2661 45.0347C82.016 45.1021 84.6572 44.8371 84.4435 44.8115C86.9106 44.51 89.2226 44.0241 91.2514 42.8897C93.308 41.7406 94.6669 40.1409 96.6193 38.9186C97.2926 38.4961 97.9911 38.1883 98.7671 37.9431C98.9088 37.9573 99.0528 37.9801 99.1934 37.9998C99.8414 38.1024 100.458 38.2758 101.037 38.4885C103.425 39.3703 105.044 40.8531 106.874 42.1611C108.638 43.4244 110.846 44.7062 113.591 44.6919C114.27 44.6899 114.975 44.6392 115.681 44.5688C116.145 44.527 116.696 44.464 116.975 44.4159L116.977 44.4245ZM97.8923 37.8957C98.041 37.8963 98.1851 37.8994 98.3315 37.9111C98.3802 37.915 98.4325 37.922 98.4813 37.9259C97.2523 38.1038 97.0777 37.8953 97.8911 37.9012L97.8923 37.8957Z" fill="#BD10A6"/>
</g>
<defs>
<clipPath id="clip0_910_12944">
<rect width="552" height="64" fill="white"/>
</clipPath>
</defs>
</svg>
