<svg width="303" height="64" viewBox="0 0 303 64" fill="none" xmlns="http://www.w3.org/2000/svg">
<path d="M230.004 41.4443L234.487 38.5508L239.004 42.5508L230.004 41.4443Z" fill="#65A1EF"/>
<path d="M215.463 42.5508L211.004 45.5508H216.004L215.463 42.5508Z" fill="#F6C52F"/>
<path d="M275.571 45.9535C275.233 45.8288 274.896 45.7071 274.558 45.5853C274.48 45.5586 274.199 45.4309 274.134 45.4369C272.969 45.5289 271.74 45.5408 270.463 45.3983C269.987 45.3448 269.502 45.2706 269.021 45.1666C267.298 44.163 266.753 42.8594 266.432 41.6984C266.09 40.4691 265.935 39.2012 264.727 37.9718C264.212 37.4463 263.51 36.9711 262.627 36.6089C261.432 36.1189 260.073 35.5785 258.774 35.237C256.398 34.6135 254.134 34.9876 252.363 35.4657C250.606 35.9408 248.913 36.5733 246.71 36.5614C246.134 36.6356 245.523 36.6237 245.052 36.4545C245.013 36.4456 244.978 36.4337 244.943 36.4188C244.896 36.4129 244.852 36.407 244.805 36.3981C244.125 35.9467 243.727 35.4182 243.454 34.9015C242.878 33.8028 242.809 32.6329 241.493 31.5817C240.627 30.8898 239.445 30.4533 238.233 30.0079C236.9 29.518 235.588 29.0013 234.142 28.7489C231.415 28.2768 228.982 28.7192 227.004 29.3339C227.082 29.3101 228.29 29.812 228.432 29.8654C228.593 29.9248 229.744 30.4207 229.87 30.3821C231.614 29.8416 233.662 29.4378 236.017 29.6635C236.567 29.7169 237.125 29.806 237.675 29.9307C237.692 29.9337 237.705 29.9367 237.723 29.9426C238.519 30.3821 239.103 30.8958 239.48 31.4451C240.233 32.5497 240.199 33.684 241.242 34.7738C241.783 35.335 242.558 35.7448 243.502 36.0952C244.714 36.5465 246 37.1048 247.316 37.378C252.554 38.4677 255.108 35.5696 260.026 36.0091C260.32 36.0358 260.601 36.0803 260.883 36.1308C260.917 36.1516 260.952 36.1753 260.987 36.1961C261.787 36.7306 262.307 37.3572 262.662 37.9689C263.385 39.219 263.389 40.4275 263.926 41.6687C264.207 42.319 264.64 42.9901 265.389 43.5929C266.281 44.3115 267.489 44.742 268.749 45.2023C270.112 45.7011 271.381 46.1762 272.861 46.3841C274.303 46.586 275.697 46.586 277.004 46.4821C276.818 46.4969 275.787 46.0307 275.575 45.9506L275.571 45.9535Z" fill="#1FC1B9"/>
<path d="M216.004 17.8948L219.989 13.5508L224.004 19.5508L216.004 17.8948Z" fill="#65A1EF"/>
<path d="M251.004 18.5508L252.422 13.5508L264.004 17.8702L251.004 18.5508Z" fill="#F6C52F"/>
<path d="M205.004 29.5508L210.004 29.5891L207.701 33.5508L205.004 29.5508Z" fill="#BD10A6"/>
<path d="M90.5811 38.7308L95.2112 37.8212L94.7761 43.4192L90.5811 38.7308Z" fill="#F6C52F"/>
<path d="M105.453 34.3654L111.442 34.331L109.075 38.2062L105.453 34.3654Z" fill="#65A1EF"/>
<path d="M99.6865 17.8666L88.596 18.4546L91.9376 11.0246L99.6865 17.8666Z" fill="#4344AF"/>
<path d="M71.8546 34.2073L75.2974 32.7872L76.005 36.0476L71.8546 34.2073Z" fill="#1FC1B9"/>
<path d="M70.1796 21.3051L68.5508 19.2891L68.012 21.0534L70.1796 21.3051Z" fill="#BD10A6"/>
<path d="M53.9492 47.9011C54.1845 47.8692 54.4175 47.8353 54.6451 47.801C55.53 47.6672 56.3181 47.3418 56.9743 46.9119C58.3379 46.0188 58.8345 44.8666 59.5437 43.724C59.9089 43.1358 60.3731 42.5479 61.1398 42.155C61.2824 42.0801 61.4366 42.0155 61.5947 41.9587C61.9597 41.9898 62.3201 42.043 62.678 42.1205C64.9066 42.6048 66.9202 43.697 68.6329 44.7406C68.7402 44.8055 69.5717 44.6506 69.7265 44.6348C69.9827 44.6084 70.242 44.5804 70.5013 44.5523C70.5462 44.5484 70.7963 44.499 70.821 44.5122C69.2572 43.5574 67.4837 42.6178 65.5246 42.0574C64.6784 41.817 63.7629 41.6555 62.8289 41.7102C62.6254 41.7221 62.4203 41.7414 62.2152 41.7606C62.2983 41.6678 60.7874 41.8453 60.8491 41.9046C60.469 41.9437 60.0851 41.988 59.7226 42.0866C58.004 42.5535 57.4203 43.8431 56.8181 44.9098C56.1855 46.0285 55.2202 47.145 53.6079 47.733C53.5211 47.7654 53.4351 47.7942 53.3437 47.8226C53.1109 47.8039 52.8836 47.7726 52.654 47.7261C51.816 47.5501 51.0761 47.2112 50.4231 46.8267C49.0868 46.0441 48.0904 45.0371 46.7247 44.2765C46.053 43.9018 45.2946 43.5726 44.441 43.418C43.4715 43.239 42.5085 43.3778 41.5309 43.4816C40.6772 43.5728 39.8769 43.6589 39.1259 43.9779C38.4176 44.2779 37.8272 44.6961 37.2848 45.1219C35.9251 46.1899 34.7487 47.2764 32.8029 47.8789C32.414 47.998 32.0129 48.0972 31.6079 48.1756C31.4919 48.1775 31.3758 48.1795 31.2606 48.1778C30.1952 48.1638 29.1599 48.0096 28.1916 47.7219C28.1452 47.7069 27.8859 47.7481 27.8688 47.7505C27.6103 47.7749 27.3541 47.8013 27.0948 47.8293C26.8386 47.8557 26.5794 47.8838 26.3201 47.9118C26.255 47.9198 26.0552 47.9657 26.0004 47.9519C27.5846 48.4241 29.1721 48.4423 30.8392 48.3073C30.6727 48.3522 32.4312 48.1758 32.2889 48.1587C33.9314 47.958 35.4707 47.6345 36.8214 46.8792C38.1907 46.1141 39.0955 45.0491 40.3953 44.2353C40.8436 43.954 41.3086 43.7491 41.8253 43.5859C41.9197 43.5953 42.0155 43.6105 42.1091 43.6236C42.5406 43.6919 42.9509 43.8074 43.3365 43.949C44.9264 44.5361 46.0042 45.5233 47.2225 46.3941C48.3975 47.2352 49.8673 48.0886 51.6948 48.0791C52.1466 48.0777 52.6164 48.044 53.0862 47.9971C53.395 47.9693 53.7619 47.9274 53.9477 47.8953L53.9492 47.9011ZM41.2428 43.5543C41.3419 43.5547 41.4378 43.5567 41.5353 43.5645C41.5677 43.5671 41.6025 43.5718 41.635 43.5744C40.8168 43.6928 40.7005 43.554 41.2421 43.558L41.2428 43.5543Z" fill="#BD10A6"/>
</svg>
