<svg width="16" height="16" viewBox="0 0 16 16" fill="none" xmlns="http://www.w3.org/2000/svg">
<path fill-rule="evenodd" clip-rule="evenodd" d="M0 8C0 3.58172 3.58172 0 8 0C12.4183 0 16 3.58172 16 8C16 12.4183 12.4183 16 8 16C3.58172 16 0 12.4183 0 8Z" fill="#4C6C91"/>
<path fill-rule="evenodd" clip-rule="evenodd" d="M8.41758 10.6259C8.41758 10.6259 8.57158 10.6091 8.65047 10.5259C8.72267 10.4497 8.72017 10.3059 8.72017 10.3059C8.72017 10.3059 8.71057 9.63444 9.02818 9.5353C9.34121 9.4378 9.74313 10.1847 10.1697 10.4718C10.4919 10.689 10.7365 10.6414 10.7365 10.6414L11.8763 10.6259C11.8763 10.6259 12.4723 10.5898 12.1897 10.1298C12.1664 10.0921 12.0249 9.7893 11.3425 9.1674C10.6275 8.51641 10.7235 8.6217 11.5841 7.49548C12.1083 6.80967 12.3179 6.39097 12.2523 6.21194C12.1901 6.04069 11.8045 6.08616 11.8045 6.08616L10.5215 6.09395C10.5215 6.09395 10.4264 6.08125 10.3558 6.12263C10.287 6.16319 10.2423 6.25782 10.2423 6.25782C10.2423 6.25782 10.0395 6.78836 9.76859 7.23984C9.19722 8.19194 8.96892 8.24234 8.87543 8.18334C8.65798 8.04528 8.71224 7.62945 8.71224 7.33406C8.71224 6.41104 8.85498 6.02635 8.43469 5.9268C8.29529 5.89361 8.19262 5.8719 7.83577 5.86821C7.37792 5.86371 6.9906 5.86985 6.77107 5.97514C6.62499 6.0452 6.5123 6.2017 6.58117 6.21071C6.66589 6.22177 6.85788 6.26151 6.95972 6.39753C7.09119 6.57328 7.0866 6.9674 7.0866 6.9674C7.0866 6.9674 7.16214 8.05388 6.91005 8.18867C6.73726 8.28126 6.5002 8.09239 5.99059 7.22837C5.72974 6.78591 5.53274 6.29674 5.53274 6.29674C5.53274 6.29674 5.49476 6.20538 5.42673 6.15622C5.34451 6.09682 5.22974 6.07838 5.22974 6.07838L4.01061 6.08616C4.01061 6.08616 3.82739 6.09108 3.76019 6.16933C3.70051 6.23857 3.7556 6.38237 3.7556 6.38237C3.7556 6.38237 4.71012 8.57459 5.79109 9.67951C6.78234 10.6923 7.90756 10.6259 7.90756 10.6259H8.41758Z" fill="white"/>
</svg>
